<svg xmlns="http://www.w3.org/2000/svg" xmlns:xlink="http://www.w3.org/1999/xlink" version="1.1" id="floor4" x="0px" y="0px" viewBox="0 0 2972 1245" style="enable-background:new 0 0 2972 1245;" xml:space="preserve">
<style type="text/css">
	.f40{fill:#D6D6D6;}
	.f41{fill-rule:evenodd;clip-rule:evenodd;fill:#9575CD;}
	.f42{fill:#FFFFFF;}
	.f43{fill-rule:evenodd;clip-rule:evenodd;fill:#9FA8DA;}
	.f44{fill:#FFFFFF;stroke:#020000;stroke-miterlimit:10;}
	.f45{fill:none;stroke:#020000;stroke-miterlimit:10;}
	.f46{fill:none;stroke:#D907EF;stroke-miterlimit:10;}
	.f47{fill:none;stroke:#45F206;stroke-miterlimit:10;}
	.f48{fill:none;stroke:#050505;stroke-miterlimit:10;}
	.f49{fill:#CCCCCC;}
	.f410{fill:#E6E6E6;}
</style>
<g id="Base">
	<g transform="">
		<g id="svgMap">
			<path class="f40" d="M291,834v-65h65v65H291z"/>
			<path class="f40" d="M2516,864c0-2.8,2.2-5,5-5s5,2.2,5,5v5c0,2.8-2.2,5-5,5s-5-2.2-5-5V864z"/>
			<path class="f40" d="M2726,864c0-2.8,2.2-5,5-5s5,2.2,5,5v5c0,2.8-2.2,5-5,5s-5-2.2-5-5V864z"/>
			<path class="f40" d="M2761,829c0-2.8,2.2-5,5-5s5,2.2,5,5v5c0,2.8-2.2,5-5,5s-5-2.2-5-5V829z"/>
			<path class="f40" d="M2691,829c0-2.8,2.2-5,5-5s5,2.2,5,5v5c0,2.8-2.2,5-5,5s-5-2.2-5-5V829z"/>
			<path class="f40" d="M2516,829c0-2.8,2.2-5,5-5s5,2.2,5,5v5c0,2.8-2.2,5-5,5s-5-2.2-5-5V829z"/>
			<path class="f40" d="M2551,829c0-2.8,2.2-5,5-5s5,2.2,5,5v5c0,2.8-2.2,5-5,5s-5-2.2-5-5V829z"/>
			<path class="f40" d="M2621,829c0-2.8,2.2-5,5-5s5,2.2,5,5v5c0,2.8-2.2,5-5,5s-5-2.2-5-5V829z"/>
			<path class="f40" d="M2436,839v-70h65v70H2436z"/>
			<path class="f40" d="M2386,831v-27h20v27H2386z"/>
			<path class="f40" d="M2391,832.7c0-5.9,5.6-10.1,10-3.3v14.7c-4.4,6.8-10,2.7-10-3.3V832.7z"/>
			<path class="f40" d="M2691,864c0-2.8,2.2-5,5-5s5,2.2,5,5v5c0,2.8-2.2,5-5,5s-5-2.2-5-5V864z"/>
			<path class="f40" d="M2656,864c0-2.8,2.2-5,5-5s5,2.2,5,5v5c0,2.8-2.2,5-5,5s-5-2.2-5-5V864z"/>
			<path class="f40" d="M2621,864c0-2.8,2.2-5,5-5s5,2.2,5,5v5c0,2.8-2.2,5-5,5s-5-2.2-5-5V864z"/>
			<path class="f40" d="M2586,864c0-2.8,2.2-5,5-5s5,2.2,5,5v5c0,2.8-2.2,5-5,5s-5-2.2-5-5V864z"/>
			<path class="f40" d="M2551,864c0-2.8,2.2-5,5-5s5,2.2,5,5v5c0,2.8-2.2,5-5,5s-5-2.2-5-5V864z"/>
			<path class="f40" d="M2446,864c0-2.8,2.2-5,5-5s5,2.2,5,5v5c0,2.8-2.2,5-5,5s-5-2.2-5-5V864z"/>
			<path class="f40" d="M2436,864v-30h345v30H2436z"/>
			<path class="f40" d="M371,779.9c0,2.8-2.2,5-5,5h-9.5c-2.8,0-5-2.2-5-5V774c0-2.8,2.2-5,5-5h9.5c2.8,0,5,2.2,5,5V779.9z"/>
			<path class="f40" d="M2656.8,829.8c0-2.8,2.2-5,5-5s5,2.2,5,5v5c0,2.8-2.2,5-5,5s-5-2.2-5-5V829.8z"/>
			<path class="f40" d="M2471,864c0-2.8,2.2-5,5-5h20c2.8,0,5,2.2,5,5v60c0,2.8-2.2,5-5,5h-20c-2.8,0-5-2.2-5-5V864z"/>
			<path class="f40" d="M2751,864c0-2.8,2.2-5,5-5h20c2.8,0,5,2.2,5,5v60c0,2.8-2.2,5-5,5h-20c-2.8,0-5-2.2-5-5V864z"/>
			<path class="f40" d="M1486,864h29v65h-29V864z"/>
			<rect x="1481" y="874" class="f40" width="5" height="10"/>
			<rect x="1515" y="914" class="f40" width="2" height="10"/>
			<rect x="56" y="829" class="f40" width="10" height="5"/>
			<rect x="91" y="829" class="f40" width="10" height="5"/>
			<rect x="146" y="829" class="f40" width="10" height="5"/>
			<rect x="196" y="829" class="f40" width="10" height="5"/>
			<rect x="231" y="829" class="f40" width="10" height="5"/>
			<rect x="266" y="829" class="f40" width="10" height="5"/>
			<rect x="266" y="864" class="f40" width="10" height="5"/>
			<rect x="336" y="864" class="f40" width="10" height="5"/>
			<rect x="196" y="864" class="f40" width="10" height="5"/>
			<rect x="126" y="864" class="f40" width="10" height="5"/>
			<rect x="56" y="864" class="f40" width="10" height="5"/>
			
			
			
			
			
			
			
			
			
			
			
			
			
			
			
			
			
			
			
			
			
			
			
			
			
			
			
			
			
			
			
			
			
			
			
			
			
			
			
			
			
			
			
			
			
			
			
			
			
			
			
			
			
			
			
			
			
			
			
			
			
			
			
			
			
			
			
			
			
			
			
			
			
			
			
			
			
			
			<path class="f40" d="M11,864v-30h345v30H11z"/>
			<rect x="21" y="829" class="f40" width="10" height="5"/>
			<rect x="356" y="844" class="f40" width="5" height="10"/>
			<rect x="1241" y="834" class="f40" width="310" height="30"/>
			<rect x="1251" y="829" class="f40" width="10" height="5"/>
			<rect x="1286" y="829" class="f40" width="10" height="5"/>
			<rect x="1321" y="829" class="f40" width="10" height="5"/>
			<rect x="1356" y="829" class="f40" width="10" height="5"/>
			<rect x="1461" y="829" class="f40" width="10" height="5"/>
			<rect x="1496" y="829" class="f40" width="10" height="5"/>
			<rect x="1531" y="829" class="f40" width="10" height="5"/>
			<rect x="1426" y="864" class="f40" width="10" height="5"/>
			<path class="f40" d="M1276,864h30v65h-30V864z"/>
			<rect x="1271" y="874" class="f40" width="5" height="10"/>
			<rect x="1306" y="879" class="f40" width="5" height="10"/>
			<rect x="1306" y="909" class="f40" width="5" height="10"/>
		</g>
	</g>
	
	
	
</g>
<g id="Portals">
	<line id="Stair.31.floor4" class="f46" x1="2482.3" y1="784.5" x2="2441.4" y2="784.5" ways="line28-floor4" length="40.90000000000009"/>
	<line id="Stair.25.floor4" class="f46" x1="2482.3" y1="849" x2="2482.3" y2="889.7" ways="line29-floor4,line30-floor4" length="40.700000000000045"/>
	<line id="Stair.30.floor4" class="f46" x1="2764.9" y1="849" x2="2764.9" y2="891" ways="line4-floor4,doorlineline75-floor4" length="42"/>
	<line id="Stair.33.floor4" class="f46" x1="1395.8" y1="849" x2="1395.8" y2="887.7" ways="line19-floor4,line20-floor4" length="38.700000000000045"/>
	<line id="Stair.19.floor4" class="f46" x1="306" y1="849" x2="306" y2="894" ways="line0-floor4,line3-floor4" length="45"/>
	<line id="Stair.20.floor4" class="f46" x1="27.1" y1="849" x2="27.1" y2="894.7" ways="line11-floor4,doorlineline35-floor4" length="45.700000000000045"/>
	<line id="Stair.32.floor4" class="f46" x1="341.2" y1="779.3" x2="371" y2="779.3" ways="line12-floor4" length="29.80000000000001"/>
</g>
<g id="Rooms">
<g id="WC-F-A4-floor4"><path id="wc11" class="f43" d="M326,871c0-1.1,0.9-2,2-2h26c1.1,0,2,0.9,2,2v56c0,1.1-0.9,2-2,2h-26c-1.1,0-2-0.9-2-2V871z"/></g><g id="WC-FM-A4-floor4"><path id="wc25" class="f43" d="M1517,871c0-1.1,0.9-2,2-2h30c1.1,0,2,0.9,2,2v56c0,1.1-0.9,2-2,2h-30c-1.1,0-2-0.9-2-2V871z"/></g><g id="WC-M-A4-1-floor4"><path id="wc33" class="f43" d="M2436,871c0-1.1,0.9-2,2-2h26c1.1,0,2,0.9,2,2v56c0,1.1-0.9,2-2,2h-26c-1.1,0-2-0.9-2-2V871z"/></g><g id="WC-F-A4-1-floor4"><path id="wc34" class="f43" d="M2506,871c0-1.1,0.9-2,2-2h26c1.1,0,2,0.9,2,2v56c0,1.1-0.9,2-2,2h-26c-1.1,0-2-0.9-2-2V871z"/></g><g id="A-438-floor4"><path id="aud0" class="f41" d="M11,771c0-1.1,0.9-2,2-2h26c1.1,0,2,0.9,2,2v56c0,1.1-0.9,2-2,2H13c-1.1,0-2-0.9-2-2V771z"/><path id="aud0_0" class="f42" d="M33,814.5l-3.1,0.9v4.7l3.1,0.9v2.9l-12.9-4.5v-3.3l12.9-4.6V814.5z M27.7,816.1     c-2.8,0.9-4.3,1.3-4.7,1.5c-0.4,0.1-0.7,0.2-0.9,0.2c0.8,0.2,2.6,0.7,5.6,1.7V816.1z M29.3,811h-2.2v-4.7h2.2V811z M30.3,795.8     v1.5H33v2.7h-2.7v5.5h-1.9l-8.3-5.6v-2.5h8.1v-1.5H30.3z M28.2,800H26c-0.4,0-0.9,0-1.6,0c-0.7,0-1.1-0.1-1.2-0.1v0.1     c0.5,0.2,0.9,0.5,1.4,0.8l3.6,2.4V800z M23,786.3c0.8,0,1.5,0.2,2,0.7c0.6,0.5,0.9,1.2,1.2,2h0.1c0.1-1,0.4-1.8,0.9-2.4     c0.5-0.5,1.2-0.8,2-0.8c1.2,0,2.2,0.4,2.9,1.3c0.7,0.9,1,2.2,1,3.8c0,1.4-0.2,2.6-0.7,3.7h-2.3c0.3-0.5,0.5-1,0.6-1.6     c0.2-0.6,0.2-1.2,0.2-1.8c0-0.9-0.2-1.6-0.5-2c-0.3-0.4-0.8-0.6-1.5-0.6c-0.6,0-1,0.2-1.3,0.7c-0.3,0.5-0.4,1.3-0.4,2.4v1h-2.1     v-1c0-1-0.1-1.7-0.4-2.2c-0.3-0.5-0.7-0.7-1.3-0.7c-1,0-1.5,0.6-1.5,1.8c0,0.4,0.1,0.9,0.2,1.3c0.1,0.4,0.4,0.9,0.7,1.5l-1.9,1.3     c-0.8-1.2-1.3-2.6-1.3-4.2c0-1.3,0.3-2.4,0.8-3.1C21.3,786.7,22.1,786.3,23,786.3z M20,780.1c0-1.2,0.3-2.2,0.8-3     c0.6-0.8,1.3-1.1,2.3-1.1c0.7,0,1.2,0.2,1.8,0.5c0.5,0.4,1,0.9,1.4,1.8c0.5-1,1.1-1.6,1.6-2.1c0.6-0.4,1.2-0.6,1.8-0.6     c1.1,0,1.9,0.4,2.5,1.2c0.6,0.8,1,1.9,1,3.3c0,1.4-0.3,2.5-0.9,3.3c-0.6,0.8-1.4,1.2-2.5,1.2c-0.7,0-1.4-0.2-2-0.6     c-0.6-0.4-1.1-1-1.5-1.9c-0.5,0.7-1,1.3-1.5,1.6c-0.5,0.3-1.1,0.5-1.7,0.5c-0.9,0-1.7-0.4-2.2-1.1C20.3,782.3,20,781.3,20,780.1z      M29.6,782.1c0.5,0,0.9-0.2,1.2-0.5c0.3-0.4,0.4-0.8,0.4-1.4c0-0.7-0.1-1.2-0.4-1.5c-0.3-0.3-0.7-0.5-1.2-0.5     c-0.4,0-0.8,0.2-1.1,0.5c-0.3,0.3-0.7,0.9-1.1,1.6C28,781.4,28.7,782.1,29.6,782.1z M22,780.1c0,0.5,0.1,0.8,0.4,1.1     c0.2,0.3,0.6,0.4,0.9,0.4c0.4,0,0.7-0.1,0.9-0.3c0.3-0.2,0.6-0.6,0.9-1.2c-0.3-0.6-0.5-1-0.8-1.2c-0.3-0.2-0.6-0.3-1-0.3     c-0.4,0-0.7,0.1-1,0.4C22.1,779.2,22,779.6,22,780.1z"/></g><g id="A-436-floor4"><path id="aud1" class="f41" d="M46,771c0-1.1,0.9-2,2-2h26c1.1,0,2,0.9,2,2v56c0,1.1-0.9,2-2,2H48c-1.1,0-2-0.9-2-2V771z"/><path id="aud1_0" class="f42" d="M68,814.5l-3.1,0.9v4.7l3.1,0.9v2.9l-12.9-4.5v-3.3l12.9-4.6V814.5z M62.7,816.1     c-2.8,0.9-4.3,1.3-4.7,1.5c-0.4,0.1-0.7,0.2-0.9,0.2c0.8,0.2,2.6,0.7,5.6,1.7V816.1z M64.3,811h-2.2v-4.7h2.2V811z M65.3,795.8     v1.5H68v2.7h-2.7v5.5h-1.9l-8.3-5.6v-2.5h8.1v-1.5H65.3z M63.2,800H61c-0.4,0-0.9,0-1.6,0c-0.7,0-1.1-0.1-1.2-0.1v0.1     c0.5,0.2,0.9,0.5,1.4,0.8l3.6,2.4V800z M58,786.3c0.8,0,1.5,0.2,2,0.7c0.6,0.5,0.9,1.2,1.2,2h0.1c0.1-1,0.4-1.8,0.9-2.4     c0.5-0.5,1.2-0.8,2-0.8c1.2,0,2.2,0.4,2.9,1.3c0.7,0.9,1,2.2,1,3.8c0,1.4-0.2,2.6-0.7,3.7h-2.3c0.3-0.5,0.5-1,0.6-1.6     c0.2-0.6,0.2-1.2,0.2-1.8c0-0.9-0.2-1.6-0.5-2c-0.3-0.4-0.8-0.6-1.5-0.6c-0.6,0-1,0.2-1.3,0.7c-0.3,0.5-0.4,1.3-0.4,2.4v1h-2.1     v-1c0-1-0.1-1.7-0.4-2.2c-0.3-0.5-0.7-0.7-1.3-0.7c-1,0-1.5,0.6-1.5,1.8c0,0.4,0.1,0.9,0.2,1.3c0.1,0.4,0.4,0.9,0.7,1.5l-1.9,1.3     c-0.8-1.2-1.3-2.6-1.3-4.2c0-1.3,0.3-2.4,0.8-3.1C56.3,786.7,57.1,786.3,58,786.3z M62.5,784.6c-2.5,0-4.4-0.5-5.7-1.6     c-1.2-1.1-1.9-2.7-1.9-4.8c0-0.7,0-1.3,0.1-1.7h2.2c-0.1,0.5-0.2,1-0.2,1.5c0,0.9,0.1,1.7,0.4,2.3c0.3,0.6,0.7,1,1.2,1.3     c0.6,0.3,1.3,0.5,2.3,0.5V782c-1-0.6-1.5-1.5-1.5-2.8c0-1.1,0.4-2,1.1-2.7c0.7-0.7,1.7-1,3-1c1.4,0,2.5,0.4,3.3,1.2     c0.8,0.8,1.2,1.8,1.2,3.2c0,0.9-0.2,1.8-0.7,2.5c-0.4,0.7-1.1,1.2-1.9,1.6C64.7,784.4,63.7,784.6,62.5,784.6z M66,779.9     c0-0.6-0.2-1-0.6-1.3c-0.4-0.3-0.9-0.5-1.7-0.5c-0.6,0-1.1,0.1-1.5,0.4c-0.4,0.3-0.5,0.7-0.5,1.3c0,0.6,0.2,1,0.5,1.4     c0.4,0.4,0.8,0.6,1.2,0.6c0.7,0,1.3-0.2,1.8-0.5C65.8,781,66,780.5,66,779.9z"/></g><g id="A-434-floor4"><path id="aud2" class="f41" d="M81,771c0-1.1,0.9-2,2-2h26c1.1,0,2,0.9,2,2v56c0,1.1-0.9,2-2,2H83c-1.1,0-2-0.9-2-2V771z"/><path id="aud2_0" class="f42" d="M103,814.5l-3.1,0.9v4.7l3.1,0.9v2.9l-12.9-4.5v-3.3l12.9-4.6V814.5z M97.7,816.1     c-2.8,0.9-4.3,1.3-4.7,1.5c-0.4,0.1-0.7,0.2-0.9,0.2c0.8,0.2,2.6,0.7,5.6,1.7V816.1z M99.3,811h-2.2v-4.7h2.2V811z M100.3,795.8     v1.5h2.7v2.7h-2.7v5.5h-1.9l-8.3-5.6v-2.5h8.1v-1.5H100.3z M98.2,800H96c-0.4,0-0.9,0-1.6,0c-0.7,0-1.1-0.1-1.2-0.1v0.1     c0.5,0.2,0.9,0.5,1.4,0.8l3.6,2.4V800z M93,786.3c0.8,0,1.5,0.2,2,0.7c0.6,0.5,0.9,1.2,1.2,2h0.1c0.1-1,0.4-1.8,0.9-2.4     c0.5-0.5,1.2-0.8,2-0.8c1.2,0,2.2,0.4,2.9,1.3c0.7,0.9,1,2.2,1,3.8c0,1.4-0.2,2.6-0.7,3.7h-2.3c0.3-0.5,0.5-1,0.6-1.6     c0.2-0.6,0.2-1.2,0.2-1.8c0-0.9-0.2-1.6-0.5-2c-0.3-0.4-0.8-0.6-1.5-0.6c-0.6,0-1,0.2-1.3,0.7c-0.3,0.5-0.4,1.3-0.4,2.4v1h-2.1     v-1c0-1-0.1-1.7-0.4-2.2c-0.3-0.5-0.7-0.7-1.3-0.7c-1,0-1.5,0.6-1.5,1.8c0,0.4,0.1,0.9,0.2,1.3c0.1,0.4,0.4,0.9,0.7,1.5l-1.9,1.3     c-0.8-1.2-1.3-2.6-1.3-4.2c0-1.3,0.3-2.4,0.8-3.1C91.3,786.7,92.1,786.3,93,786.3z M100.3,775.2v1.5h2.7v2.7h-2.7v5.5h-1.9     l-8.3-5.6v-2.5h8.1v-1.5H100.3z M98.2,779.4H96c-0.4,0-0.9,0-1.6,0c-0.7,0-1.1-0.1-1.2-0.1v0.1c0.5,0.2,0.9,0.5,1.4,0.8l3.6,2.4     V779.4z"/></g><g id="A-433-floor4"><path id="aud3" class="f41" d="M116,771c0-1.1,0.9-2,2-2h61c1.1,0,2,0.9,2,2v56c0,1.1-0.9,2-2,2h-61c-1.1,0-2-0.9-2-2V771z"/><path id="aud3_0" class="f42" d="M133.5,805l-0.9-3.1h-4.7l-0.9,3.1H124l4.5-12.9h3.3l4.6,12.9H133.5z M131.9,799.7     c-0.9-2.8-1.3-4.3-1.5-4.7c-0.1-0.4-0.2-0.6-0.2-0.9c-0.2,0.8-0.7,2.6-1.7,5.6H131.9z M137,801.3v-2.2h4.7v2.2H137z M152.2,802.3     h-1.5v2.7H148v-2.7h-5.5v-1.9l5.6-8.3h2.5v8.1h1.5V802.3z M148,800.2V798c0-0.4,0-0.9,0-1.6c0-0.7,0.1-1.1,0.1-1.2h-0.1     c-0.2,0.5-0.5,0.9-0.8,1.4l-2.4,3.6H148z M161.7,795c0,0.8-0.2,1.5-0.7,2c-0.5,0.6-1.2,0.9-2,1.2v0.1c1,0.1,1.8,0.4,2.4,0.9     c0.5,0.5,0.8,1.2,0.8,2c0,1.2-0.4,2.2-1.3,2.9c-0.9,0.7-2.2,1-3.8,1c-1.4,0-2.6-0.2-3.7-0.7v-2.3c0.5,0.3,1,0.5,1.6,0.6     c0.6,0.2,1.2,0.2,1.8,0.2c0.9,0,1.6-0.2,2-0.5c0.4-0.3,0.6-0.8,0.6-1.5c0-0.6-0.2-1-0.7-1.3c-0.5-0.3-1.3-0.4-2.4-0.4h-1v-2.1h1     c1,0,1.7-0.1,2.2-0.4c0.5-0.3,0.7-0.7,0.7-1.3c0-1-0.6-1.5-1.8-1.5c-0.4,0-0.9,0.1-1.3,0.2c-0.4,0.1-0.9,0.4-1.4,0.7l-1.3-1.9     c1.2-0.8,2.6-1.3,4.2-1.3c1.3,0,2.4,0.3,3.1,0.8C161.3,793.3,161.7,794.1,161.7,795z M172,795c0,0.8-0.2,1.5-0.7,2     c-0.5,0.6-1.2,0.9-2,1.2v0.1c1,0.1,1.8,0.4,2.4,0.9c0.5,0.5,0.8,1.2,0.8,2c0,1.2-0.4,2.2-1.3,2.9c-0.9,0.7-2.2,1-3.8,1     c-1.4,0-2.6-0.2-3.7-0.7v-2.3c0.5,0.3,1,0.5,1.6,0.6c0.6,0.2,1.2,0.2,1.8,0.2c0.9,0,1.6-0.2,2-0.5c0.4-0.3,0.6-0.8,0.6-1.5     c0-0.6-0.2-1-0.7-1.3c-0.5-0.3-1.3-0.4-2.4-0.4h-1v-2.1h1c1,0,1.7-0.1,2.2-0.4c0.5-0.3,0.7-0.7,0.7-1.3c0-1-0.6-1.5-1.8-1.5     c-0.4,0-0.9,0.1-1.3,0.2c-0.4,0.1-0.9,0.4-1.4,0.7l-1.3-1.9c1.2-0.8,2.6-1.3,4.2-1.3c1.3,0,2.4,0.3,3.1,0.8     C171.6,793.3,172,794.1,172,795z"/></g><g id="A-430-floor4"><path id="aud4" class="f41" d="M186,771c0-1.1,0.9-2,2-2h26c1.1,0,2,0.9,2,2v56c0,1.1-0.9,2-2,2h-26c-1.1,0-2-0.9-2-2V771z"/><path id="aud4_0" class="f42" d="M208,814.5l-3.1,0.9v4.7l3.1,0.9v2.9l-12.9-4.5v-3.3l12.9-4.6V814.5z M202.7,816.1     c-2.8,0.9-4.3,1.3-4.7,1.5c-0.4,0.1-0.6,0.2-0.9,0.2c0.8,0.2,2.6,0.7,5.6,1.7V816.1z M204.3,811h-2.2v-4.7h2.2V811z M205.3,795.8     v1.5h2.7v2.7h-2.7v5.5h-1.9l-8.3-5.6v-2.5h8.1v-1.5H205.3z M203.2,800H201c-0.4,0-0.9,0-1.6,0c-0.7,0-1.1-0.1-1.2-0.1v0.1     c0.5,0.2,0.9,0.5,1.4,0.8l3.6,2.4V800z M198,786.3c0.8,0,1.5,0.2,2,0.7c0.6,0.5,0.9,1.2,1.2,2h0.1c0.1-1,0.4-1.8,0.9-2.4     c0.5-0.5,1.2-0.8,2-0.8c1.2,0,2.2,0.4,2.9,1.3c0.7,0.9,1,2.2,1,3.8c0,1.4-0.2,2.6-0.7,3.7h-2.3c0.3-0.5,0.5-1,0.6-1.6     c0.2-0.6,0.2-1.2,0.2-1.8c0-0.9-0.2-1.6-0.5-2c-0.3-0.4-0.8-0.6-1.5-0.6c-0.6,0-1,0.2-1.3,0.7s-0.4,1.3-0.4,2.4v1h-2.1v-1     c0-1-0.1-1.7-0.4-2.2c-0.3-0.5-0.7-0.7-1.3-0.7c-1,0-1.5,0.6-1.5,1.8c0,0.4,0.1,0.9,0.2,1.3c0.1,0.4,0.4,0.9,0.7,1.5l-1.9,1.3     c-0.8-1.2-1.3-2.6-1.3-4.2c0-1.3,0.3-2.4,0.8-3.1C196.3,786.7,197.1,786.3,198,786.3z M201.6,775.6c2.2,0,3.9,0.4,5,1.1     c1.1,0.7,1.6,1.9,1.6,3.4c0,1.5-0.6,2.6-1.7,3.4c-1.1,0.8-2.8,1.1-4.9,1.1c-2.3,0-3.9-0.4-5-1.1c-1.1-0.7-1.6-1.9-1.6-3.4     c0-1.5,0.6-2.6,1.7-3.4C197.8,776,199.4,775.6,201.6,775.6z M201.6,781.9c1.6,0,2.7-0.1,3.4-0.4c0.7-0.3,1-0.7,1-1.4     c0-0.6-0.3-1.1-1-1.4c-0.7-0.3-1.8-0.4-3.4-0.4c-1.6,0-2.7,0.1-3.4,0.4c-0.7,0.3-1,0.7-1,1.4c0,0.6,0.3,1.1,1,1.4     C198.9,781.7,200,781.9,201.6,781.9z"/></g><g id="A-428-floor4"><path id="aud5" class="f41" d="M221,771c0-1.1,0.9-2,2-2h26c1.1,0,2,0.9,2,2v56c0,1.1-0.9,2-2,2h-26c-1.1,0-2-0.9-2-2V771z"/><path id="aud5_0" class="f42" d="M243,814.5l-3.1,0.9v4.7l3.1,0.9v2.9l-12.9-4.5v-3.3l12.9-4.6V814.5z M237.7,816.1     c-2.8,0.9-4.3,1.3-4.7,1.5c-0.4,0.1-0.6,0.2-0.9,0.2c0.8,0.2,2.6,0.7,5.6,1.7V816.1z M239.3,811h-2.2v-4.7h2.2V811z M240.3,795.8     v1.5h2.7v2.7h-2.7v5.5h-1.9l-8.3-5.6v-2.5h8.1v-1.5H240.3z M238.2,800H236c-0.4,0-0.9,0-1.6,0c-0.7,0-1.1-0.1-1.2-0.1v0.1     c0.5,0.2,0.9,0.5,1.4,0.8l3.6,2.4V800z M243,785.8v9h-1.9l-3.3-3.2c-1-1-1.7-1.6-2-1.9c-0.4-0.3-0.7-0.5-1.1-0.6     c-0.3-0.1-0.7-0.2-1-0.2c-0.5,0-0.9,0.1-1.2,0.4c-0.3,0.3-0.4,0.7-0.4,1.1c0,0.5,0.1,1,0.3,1.4c0.2,0.5,0.6,1,1,1.5l-1.7,1.5     c-0.5-0.6-0.9-1.2-1.1-1.6c-0.2-0.4-0.4-0.9-0.5-1.4c-0.1-0.5-0.2-1-0.2-1.7c0-0.8,0.1-1.5,0.4-2.1s0.7-1.1,1.2-1.4     c0.5-0.3,1.1-0.5,1.8-0.5c0.6,0,1.1,0.1,1.7,0.3c0.5,0.2,1,0.5,1.6,1c0.5,0.4,1.3,1.2,2.3,2.3l1.6,1.7h0.1v-5.6H243z M230,780.1     c0-1.2,0.3-2.2,0.8-3c0.6-0.8,1.3-1.1,2.3-1.1c0.7,0,1.2,0.2,1.8,0.5c0.5,0.4,1,0.9,1.4,1.8c0.5-1,1.1-1.6,1.6-2.1     c0.6-0.4,1.2-0.6,1.8-0.6c1.1,0,1.9,0.4,2.5,1.2c0.6,0.8,1,1.9,1,3.3c0,1.4-0.3,2.5-0.9,3.3c-0.6,0.8-1.4,1.2-2.5,1.2     c-0.7,0-1.4-0.2-2-0.6c-0.6-0.4-1.1-1-1.5-1.9c-0.5,0.7-1,1.3-1.5,1.6c-0.5,0.3-1.1,0.5-1.7,0.5c-0.9,0-1.7-0.4-2.2-1.1     C230.3,782.3,230,781.3,230,780.1z M239.6,782.1c0.5,0,0.9-0.2,1.2-0.5c0.3-0.4,0.4-0.8,0.4-1.4c0-0.7-0.1-1.2-0.4-1.5     c-0.3-0.3-0.7-0.5-1.2-0.5c-0.4,0-0.8,0.2-1.1,0.5c-0.3,0.3-0.7,0.9-1.1,1.6C238,781.4,238.7,782.1,239.6,782.1z M232,780.1     c0,0.5,0.1,0.8,0.4,1.1c0.2,0.3,0.6,0.4,0.9,0.4c0.4,0,0.7-0.1,0.9-0.3c0.3-0.2,0.6-0.6,0.9-1.2c-0.3-0.6-0.5-1-0.8-1.2     c-0.3-0.2-0.6-0.3-1-0.3c-0.4,0-0.7,0.1-1,0.4C232.1,779.2,232,779.6,232,780.1z"/></g><g id="A-426-floor4"><path id="aud6" class="f41" d="M256,771c0-1.1,0.9-2,2-2h26c1.1,0,2,0.9,2,2v56c0,1.1-0.9,2-2,2h-26c-1.1,0-2-0.9-2-2V771z"/><path id="aud6_0" class="f42" d="M278,814.5l-3.1,0.9v4.7l3.1,0.9v2.9l-12.9-4.5v-3.3l12.9-4.6V814.5z M272.7,816.1     c-2.8,0.9-4.3,1.3-4.7,1.5c-0.4,0.1-0.7,0.2-0.9,0.2c0.8,0.2,2.6,0.7,5.6,1.7V816.1z M274.3,811h-2.2v-4.7h2.2V811z M275.3,795.8     v1.5h2.7v2.7h-2.7v5.5h-1.9l-8.3-5.6v-2.5h8.1v-1.5H275.3z M273.2,800H271c-0.4,0-0.9,0-1.6,0c-0.7,0-1.1-0.1-1.2-0.1v0.1     c0.5,0.2,0.9,0.5,1.4,0.8l3.6,2.4V800z M278,785.8v9h-1.9l-3.3-3.2c-1-1-1.7-1.6-2-1.9c-0.4-0.3-0.7-0.5-1.1-0.6     c-0.3-0.1-0.7-0.2-1-0.2c-0.5,0-0.9,0.1-1.2,0.4c-0.3,0.3-0.4,0.7-0.4,1.1c0,0.5,0.1,1,0.3,1.4c0.2,0.5,0.6,1,1,1.5l-1.7,1.5     c-0.5-0.6-0.9-1.2-1.1-1.6c-0.2-0.4-0.4-0.9-0.5-1.4c-0.1-0.5-0.2-1-0.2-1.7c0-0.8,0.1-1.5,0.4-2.1s0.7-1.1,1.2-1.4     c0.5-0.3,1.1-0.5,1.8-0.5c0.6,0,1.1,0.1,1.7,0.3c0.5,0.2,1,0.5,1.6,1c0.5,0.4,1.3,1.2,2.3,2.3l1.6,1.7h0.1v-5.6H278z      M272.5,784.6c-2.5,0-4.4-0.5-5.7-1.6c-1.2-1.1-1.9-2.7-1.9-4.8c0-0.7,0-1.3,0.1-1.7h2.2c-0.1,0.5-0.2,1-0.2,1.5     c0,0.9,0.1,1.7,0.4,2.3c0.3,0.6,0.7,1,1.2,1.3c0.6,0.3,1.3,0.5,2.3,0.5V782c-1-0.6-1.5-1.5-1.5-2.8c0-1.1,0.4-2,1.1-2.7     c0.7-0.7,1.7-1,3-1c1.4,0,2.5,0.4,3.3,1.2c0.8,0.8,1.2,1.8,1.2,3.2c0,0.9-0.2,1.8-0.7,2.5c-0.4,0.7-1.1,1.2-1.9,1.6     C274.7,784.4,273.7,784.6,272.5,784.6z M276,779.9c0-0.6-0.2-1-0.6-1.3c-0.4-0.3-0.9-0.5-1.7-0.5c-0.6,0-1.1,0.1-1.5,0.4     c-0.4,0.3-0.5,0.7-0.5,1.3c0,0.6,0.2,1,0.5,1.4c0.4,0.4,0.8,0.6,1.2,0.6c0.7,0,1.3-0.2,1.8-0.5C275.8,781,276,780.5,276,779.9z"/></g><g id="A-429-floor4"><path id="aud7" class="f41" d="M46,871c0-1.1,0.9-2,2-2h61c1.1,0,2,0.9,2,2v56c0,1.1-0.9,2-2,2H48c-1.1,0-2-0.9-2-2V871z"/><path id="aud7_0" class="f42" d="M63.5,905l-0.9-3.1h-4.7l-0.9,3.1H54l4.5-12.9h3.3l4.6,12.9H63.5z M61.9,899.7     c-0.9-2.8-1.3-4.3-1.5-4.7c-0.1-0.4-0.2-0.6-0.2-0.9c-0.2,0.8-0.7,2.6-1.7,5.6H61.9z M67,901.3v-2.2h4.7v2.2H67z M82.2,902.3     h-1.5v2.7H78v-2.7h-5.5v-1.9l5.6-8.3h2.5v8.1h1.5V902.3z M78,900.2V898c0-0.4,0-0.9,0-1.6c0-0.7,0.1-1.1,0.1-1.2h-0.1     c-0.2,0.5-0.5,0.9-0.8,1.4l-2.4,3.6H78z M92.2,905h-9v-1.9l3.2-3.3c1-1,1.6-1.7,1.9-2c0.3-0.4,0.5-0.7,0.6-1.1     c0.1-0.3,0.2-0.7,0.2-1c0-0.5-0.1-0.9-0.4-1.2c-0.3-0.3-0.7-0.4-1.1-0.4c-0.5,0-1,0.1-1.5,0.3c-0.5,0.2-1,0.6-1.5,1l-1.5-1.7     c0.6-0.5,1.2-0.9,1.6-1.1c0.4-0.2,0.9-0.4,1.4-0.5c0.5-0.1,1-0.2,1.7-0.2c0.8,0,1.5,0.1,2.1,0.4c0.6,0.3,1.1,0.7,1.4,1.2     c0.3,0.5,0.5,1.1,0.5,1.8c0,0.6-0.1,1.1-0.3,1.7c-0.2,0.5-0.5,1-1,1.6c-0.4,0.5-1.2,1.3-2.3,2.3l-1.7,1.6v0.1h5.6V905z      M102.4,897.6c0,2.5-0.5,4.4-1.6,5.7c-1.1,1.2-2.7,1.9-4.8,1.9c-0.8,0-1.3,0-1.7-0.1v-2.2c0.5,0.1,1,0.2,1.5,0.2     c0.9,0,1.7-0.1,2.2-0.4c0.6-0.3,1-0.7,1.3-1.3c0.3-0.6,0.5-1.4,0.5-2.4h-0.1c-0.3,0.6-0.7,0.9-1.2,1.2c-0.4,0.2-1,0.3-1.7,0.3     c-1.1,0-2-0.4-2.6-1.1c-0.6-0.7-1-1.7-1-3c0-1.4,0.4-2.5,1.2-3.3c0.8-0.8,1.9-1.2,3.2-1.2c0.9,0,1.8,0.2,2.5,0.7     c0.7,0.4,1.3,1.1,1.6,1.9C102.3,895.5,102.4,896.5,102.4,897.6z M97.8,894.2c-0.6,0-1,0.2-1.3,0.6c-0.3,0.4-0.5,0.9-0.5,1.7     c0,0.6,0.1,1.1,0.4,1.5c0.3,0.4,0.7,0.5,1.3,0.5c0.6,0,1-0.2,1.4-0.5c0.4-0.4,0.6-0.8,0.6-1.2c0-0.7-0.2-1.3-0.6-1.8     C98.8,894.4,98.4,894.2,97.8,894.2z"/></g><g id="A-427-floor4"><path id="aud8" class="f41" d="M116,871c0-1.1,0.9-2,2-2h61c1.1,0,2,0.9,2,2v56c0,1.1-0.9,2-2,2h-61c-1.1,0-2-0.9-2-2V871z"/><path id="aud8_0" class="f42" d="M133.5,905l-0.9-3.1h-4.7l-0.9,3.1H124l4.5-12.9h3.3l4.6,12.9H133.5z M131.9,899.7     c-0.9-2.8-1.3-4.3-1.5-4.7c-0.1-0.4-0.2-0.6-0.2-0.9c-0.2,0.8-0.7,2.6-1.7,5.6H131.9z M137,901.3v-2.2h4.7v2.2H137z M152.2,902.3     h-1.5v2.7H148v-2.7h-5.5v-1.9l5.6-8.3h2.5v8.1h1.5V902.3z M148,900.2V898c0-0.4,0-0.9,0-1.6c0-0.7,0.1-1.1,0.1-1.2h-0.1     c-0.2,0.5-0.5,0.9-0.8,1.4l-2.4,3.6H148z M162.2,905h-9v-1.9l3.2-3.3c1-1,1.6-1.7,1.9-2c0.3-0.4,0.5-0.7,0.6-1.1     c0.1-0.3,0.2-0.7,0.2-1c0-0.5-0.1-0.9-0.4-1.2c-0.3-0.3-0.7-0.4-1.1-0.4c-0.5,0-1,0.1-1.4,0.3c-0.5,0.2-1,0.6-1.5,1l-1.5-1.7     c0.6-0.5,1.2-0.9,1.6-1.1c0.4-0.2,0.9-0.4,1.4-0.5c0.5-0.1,1-0.2,1.7-0.2c0.8,0,1.5,0.1,2.1,0.4c0.6,0.3,1.1,0.7,1.4,1.2     c0.3,0.5,0.5,1.1,0.5,1.8c0,0.6-0.1,1.1-0.3,1.7c-0.2,0.5-0.5,1-1,1.6c-0.4,0.5-1.2,1.3-2.3,2.3l-1.7,1.6v0.1h5.6V905z      M164.8,905l4.8-10.5h-6.3v-2.3h9.2v1.7l-4.9,11.1H164.8z"/></g><g id="A-425-floor4"><path id="aud9" class="f41" d="M186,871c0-1.1,0.9-2,2-2h61c1.1,0,2,0.9,2,2v56c0,1.1-0.9,2-2,2h-61c-1.1,0-2-0.9-2-2V871z"/><path id="aud9_0" class="f42" d="M203.5,905l-0.9-3.1h-4.7l-0.9,3.1H194l4.5-12.9h3.3l4.6,12.9H203.5z M201.9,899.7     c-0.9-2.8-1.3-4.3-1.5-4.7c-0.1-0.4-0.2-0.6-0.2-0.9c-0.2,0.8-0.7,2.6-1.7,5.6H201.9z M207,901.3v-2.2h4.7v2.2H207z M222.2,902.3     h-1.5v2.7H218v-2.7h-5.5v-1.9l5.6-8.3h2.5v8.1h1.5V902.3z M218,900.2V898c0-0.4,0-0.9,0-1.6c0-0.7,0.1-1.1,0.1-1.2h-0.1     c-0.2,0.5-0.5,0.9-0.8,1.4l-2.4,3.6H218z M232.2,905h-9v-1.9l3.2-3.3c1-1,1.6-1.7,1.9-2c0.3-0.4,0.5-0.7,0.6-1.1     c0.1-0.3,0.2-0.7,0.2-1c0-0.5-0.1-0.9-0.4-1.2c-0.3-0.3-0.7-0.4-1.1-0.4c-0.5,0-1,0.1-1.4,0.3c-0.5,0.2-1,0.6-1.5,1l-1.5-1.7     c0.6-0.5,1.2-0.9,1.6-1.1c0.4-0.2,0.9-0.4,1.4-0.5c0.5-0.1,1-0.2,1.7-0.2c0.8,0,1.5,0.1,2.1,0.4c0.6,0.3,1.1,0.7,1.4,1.2     c0.3,0.5,0.5,1.1,0.5,1.8c0,0.6-0.1,1.1-0.3,1.7c-0.2,0.5-0.5,1-1,1.6c-0.4,0.5-1.2,1.3-2.3,2.3l-1.7,1.6v0.1h5.6V905z      M238.2,896.8c1.2,0,2.2,0.3,3,1c0.7,0.7,1.1,1.7,1.1,2.9c0,1.4-0.4,2.5-1.3,3.3c-0.9,0.8-2.2,1.2-3.8,1.2     c-1.4,0-2.6-0.2-3.5-0.7v-2.3c0.5,0.2,1,0.4,1.6,0.6c0.6,0.2,1.2,0.2,1.7,0.2c1.7,0,2.5-0.7,2.5-2c0-1.3-0.9-1.9-2.6-1.9     c-0.3,0-0.7,0-1,0.1c-0.4,0.1-0.7,0.1-0.9,0.2l-1.1-0.6l0.5-6.5h7v2.3h-4.6l-0.2,2.5l0.3-0.1     C237.2,896.8,237.7,896.8,238.2,896.8z"/></g><g id="A-426-1-floor4"><path id="aud10" class="f41" d="M256,871c0-1.1,0.9-2,2-2h26c1.1,0,2,0.9,2,2v56c0,1.1-0.9,2-2,2h-26c-1.1,0-2-0.9-2-2V871z"/><path id="aud10_0" class="f42" d="M277,916.6l-2.4,0.7v3.6l2.4,0.7v2.3l-10-3.5v-2.6l10-3.5V916.6z M272.8,917.9     c-2.2,0.7-3.4,1-3.7,1.1c-0.3,0.1-0.5,0.1-0.7,0.2c0.6,0.2,2,0.6,4.3,1.3V917.9z M274.1,913.9h-1.7v-3.7h1.7V913.9z M274.9,902     v1.2h2.1v2.1h-2.1v4.3h-1.5l-6.5-4.4v-1.9h6.3V902H274.9z M273.3,905.3h-1.7c-0.3,0-0.7,0-1.2,0c-0.5,0-0.9,0-0.9-0.1v0.1     c0.4,0.2,0.7,0.4,1.1,0.6l2.8,1.8V905.3z M277,894.3v7h-1.5l-2.5-2.5c-0.8-0.7-1.3-1.2-1.6-1.5c-0.3-0.2-0.6-0.4-0.8-0.5     c-0.3-0.1-0.5-0.2-0.8-0.2c-0.4,0-0.7,0.1-0.9,0.3c-0.2,0.2-0.3,0.5-0.3,0.9c0,0.4,0.1,0.8,0.3,1.1c0.2,0.4,0.4,0.7,0.8,1.1     l-1.4,1.1c-0.4-0.5-0.7-0.9-0.9-1.2c-0.2-0.3-0.3-0.7-0.4-1.1c-0.1-0.4-0.1-0.8-0.1-1.3c0-0.6,0.1-1.2,0.3-1.7     c0.2-0.5,0.5-0.8,1-1.1c0.4-0.3,0.9-0.4,1.4-0.4c0.5,0,0.9,0.1,1.3,0.2c0.4,0.2,0.8,0.4,1.2,0.8c0.4,0.3,1,0.9,1.8,1.8l1.2,1.3     h0.1v-4.4H277z M272.8,893.3c-2,0-3.5-0.4-4.4-1.3c-1-0.8-1.4-2.1-1.4-3.8c0-0.6,0-1,0.1-1.3h1.7c-0.1,0.4-0.1,0.8-0.1,1.2     c0,0.7,0.1,1.3,0.3,1.8c0.2,0.5,0.5,0.8,1,1c0.4,0.2,1,0.4,1.8,0.4v-0.1c-0.8-0.5-1.2-1.2-1.2-2.2c0-0.9,0.3-1.6,0.8-2.1     c0.6-0.5,1.3-0.8,2.3-0.8c1.1,0,1.9,0.3,2.5,0.9c0.6,0.6,0.9,1.4,0.9,2.5c0,0.7-0.2,1.4-0.5,1.9c-0.3,0.5-0.8,1-1.5,1.3     C274.5,893.2,273.7,893.3,272.8,893.3z M275.4,889.7c0-0.5-0.1-0.8-0.5-1c-0.3-0.2-0.7-0.4-1.3-0.4c-0.5,0-0.9,0.1-1.1,0.3     c-0.3,0.2-0.4,0.6-0.4,1c0,0.4,0.1,0.8,0.4,1.1c0.3,0.3,0.6,0.5,1,0.5c0.5,0,1-0.1,1.4-0.4C275.3,890.5,275.4,890.2,275.4,889.7z      M274.1,885.4h-1.7v-3.7h1.7V885.4z M277,875.5v2.1h-5.8l-1,0l-1,0c0.4,0.4,0.6,0.6,0.7,0.7l0.9,1.1l-1.3,1l-2.6-3.2v-1.7H277z"/></g><g id="A-18-1-floor4"><path id="aud12" class="f41" d="M361,836c0-1.1,0.9-2,2-2h26c1.1,0,2,0.9,2,2v91c0,1.1-0.9,2-2,2h-26c-1.1,0-2-0.9-2-2V836z"/><path id="aud12_0" class="f42" d="M383,899.5l-3.1,0.9v4.7l3.1,0.9v2.9l-12.9-4.5v-3.3l12.9-4.6V899.5z M377.7,901.1     c-2.8,0.9-4.3,1.3-4.7,1.5c-0.4,0.1-0.7,0.2-0.9,0.2c0.8,0.2,2.6,0.7,5.6,1.7V901.1z M379.3,896h-2.2v-4.7h2.2V896z M383,883.3     v2.7h-7.4l-1.2,0l-1.3,0c0.5,0.5,0.7,0.8,0.9,0.9l1.2,1.5l-1.6,1.3l-3.3-4.1v-2.2H383z M370,875.3c0-1.2,0.3-2.2,0.8-3     c0.6-0.8,1.3-1.1,2.3-1.1c0.7,0,1.2,0.2,1.8,0.5c0.5,0.4,1,1,1.4,1.8c0.5-1,1.1-1.6,1.6-2.1c0.6-0.4,1.2-0.6,1.8-0.6     c1.1,0,1.9,0.4,2.5,1.2c0.6,0.8,1,1.9,1,3.3c0,1.4-0.3,2.5-0.9,3.3c-0.6,0.8-1.4,1.2-2.5,1.2c-0.7,0-1.4-0.2-2-0.6     c-0.6-0.4-1.1-1-1.5-1.9c-0.5,0.7-1,1.3-1.5,1.6c-0.5,0.3-1.1,0.5-1.7,0.5c-0.9,0-1.7-0.4-2.2-1.1     C370.3,877.6,370,876.6,370,875.3z M379.6,877.3c0.5,0,0.9-0.2,1.2-0.5c0.3-0.4,0.4-0.8,0.4-1.4c0-0.7-0.1-1.2-0.4-1.5     c-0.3-0.3-0.7-0.5-1.2-0.5c-0.4,0-0.8,0.2-1.1,0.5c-0.3,0.3-0.7,0.9-1.1,1.6C378,876.7,378.7,877.3,379.6,877.3z M372,875.4     c0,0.5,0.1,0.8,0.4,1.1c0.2,0.3,0.6,0.4,0.9,0.4c0.4,0,0.7-0.1,1-0.3c0.3-0.2,0.6-0.6,0.9-1.2c-0.3-0.6-0.5-1-0.8-1.2     c-0.3-0.2-0.6-0.3-1-0.3c-0.4,0-0.7,0.1-1,0.4C372.1,874.5,372,874.9,372,875.4z M379.3,869.7h-2.2v-4.7h2.2V869.7z M383,857v2.7     h-7.4l-1.2,0l-1.3,0c0.5,0.5,0.7,0.8,0.9,0.9l1.2,1.5l-1.6,1.3l-3.3-4.1V857H383z"/></g><g id="A-420-floor4"><path id="aud13" class="f41" d="M1241,771c0-1.1,0.9-2,2-2h26c1.1,0,2,0.9,2,2v56c0,1.1-0.9,2-2,2h-26c-1.1,0-2-0.9-2-2V771z"/><path id="aud13_0" class="f42" d="M1262,814.5l-3.1,0.9v4.7l3.1,0.9v2.9l-12.9-4.5v-3.3l12.9-4.6V814.5z M1256.7,816.1     c-2.8,0.9-4.3,1.3-4.7,1.5c-0.4,0.1-0.6,0.2-0.9,0.2c0.8,0.2,2.6,0.7,5.6,1.7V816.1z M1258.3,811h-2.2v-4.7h2.2V811z      M1259.3,795.8v1.5h2.7v2.7h-2.7v5.5h-1.9l-8.3-5.6v-2.5h8.1v-1.5H1259.3z M1257.2,800h-2.2c-0.4,0-0.9,0-1.6,0     c-0.7,0-1.1-0.1-1.2-0.1v0.1c0.5,0.2,0.9,0.5,1.4,0.8l3.6,2.4V800z M1262,785.8v9h-1.9l-3.3-3.2c-1-1-1.7-1.6-2-1.9     c-0.4-0.3-0.7-0.5-1.1-0.6c-0.3-0.1-0.7-0.2-1-0.2c-0.5,0-0.9,0.1-1.2,0.4c-0.2,0.3-0.4,0.7-0.4,1.1c0,0.5,0.1,1,0.3,1.4     c0.2,0.5,0.6,1,1,1.5l-1.8,1.5c-0.5-0.6-0.9-1.2-1.1-1.6c-0.2-0.4-0.4-0.9-0.5-1.4s-0.2-1-0.2-1.7c0-0.8,0.1-1.5,0.4-2.1     c0.3-0.6,0.7-1.1,1.2-1.4c0.5-0.3,1.1-0.5,1.8-0.5c0.6,0,1.1,0.1,1.7,0.3c0.5,0.2,1,0.5,1.6,1c0.5,0.4,1.3,1.2,2.3,2.3l1.5,1.7     h0.1v-5.6H1262z M1255.6,775.6c2.2,0,3.9,0.4,5,1.1c1.1,0.7,1.6,1.9,1.6,3.4c0,1.5-0.6,2.6-1.7,3.4c-1.1,0.8-2.8,1.1-4.9,1.1     c-2.3,0-3.9-0.4-5-1.1c-1.1-0.7-1.6-1.9-1.6-3.4c0-1.5,0.6-2.6,1.7-3.4C1251.8,776,1253.4,775.6,1255.6,775.6z M1255.6,781.9     c1.6,0,2.7-0.1,3.4-0.4c0.7-0.3,1-0.7,1-1.4c0-0.6-0.3-1.1-1-1.4c-0.7-0.3-1.8-0.4-3.4-0.4c-1.6,0-2.7,0.1-3.4,0.4     c-0.7,0.3-1,0.7-1,1.4c0,0.6,0.3,1.1,1,1.4C1252.9,781.7,1254,781.9,1255.6,781.9z"/></g><g id="A-420a-floor4"><path id="aud14" class="f41" d="M1276,771c0-1.1,0.9-2,2-2h26c1.1,0,2,0.9,2,2v56c0,1.1-0.9,2-2,2h-26c-1.1,0-2-0.9-2-2V771z"/><path id="aud14_0" class="f42" d="M1297,816.1l-2.6,0.8v3.9l2.6,0.8v2.4l-10.8-3.8v-2.8l10.8-3.8V816.1z M1292.6,817.4     c-2.3,0.7-3.6,1.1-3.9,1.2c-0.3,0.1-0.5,0.2-0.7,0.2c0.6,0.2,2.2,0.6,4.6,1.4V817.4z M1293.9,813.2h-1.8v-3.9h1.8V813.2z      M1294.8,800.5v1.3h2.2v2.2h-2.2v4.6h-1.6l-6.9-4.7v-2.1h6.7v-1.3H1294.8z M1293,804h-1.8c-0.3,0-0.8,0-1.3,0c-0.6,0-0.9,0-1-0.1     v0.1c0.4,0.2,0.8,0.4,1.2,0.7l3,2V804z M1297,792.2v7.5h-1.6l-2.7-2.7c-0.8-0.8-1.4-1.3-1.7-1.6c-0.3-0.2-0.6-0.4-0.9-0.5     c-0.3-0.1-0.6-0.2-0.8-0.2c-0.4,0-0.8,0.1-1,0.4c-0.2,0.2-0.3,0.5-0.3,0.9c0,0.4,0.1,0.8,0.3,1.2c0.2,0.4,0.5,0.8,0.8,1.2     l-1.5,1.2c-0.5-0.5-0.8-1-1-1.3c-0.2-0.3-0.3-0.7-0.4-1.1c-0.1-0.4-0.2-0.9-0.2-1.4c0-0.7,0.1-1.3,0.4-1.8c0.2-0.5,0.6-0.9,1-1.2     c0.4-0.3,0.9-0.4,1.5-0.4c0.5,0,1,0.1,1.4,0.3c0.4,0.2,0.9,0.4,1.3,0.8c0.4,0.4,1.1,1,1.9,1.9l1.3,1.4h0.1v-4.7H1297z      M1291.7,783.6c1.9,0,3.2,0.3,4.2,0.9c0.9,0.6,1.3,1.6,1.3,2.8c0,1.2-0.5,2.2-1.4,2.8c-0.9,0.6-2.3,0.9-4.1,0.9     c-1.9,0-3.3-0.3-4.2-0.9c-0.9-0.6-1.3-1.5-1.3-2.8c0-1.2,0.5-2.2,1.4-2.8C1288.5,784,1289.8,783.6,1291.7,783.6z M1291.7,788.9     c1.3,0,2.2-0.1,2.8-0.3c0.6-0.2,0.8-0.6,0.8-1.1c0-0.5-0.3-0.9-0.9-1.1c-0.6-0.2-1.5-0.4-2.8-0.4c-1.3,0-2.3,0.1-2.8,0.4     c-0.6,0.2-0.9,0.6-0.9,1.1c0,0.5,0.3,0.9,0.9,1.1C1289.4,788.8,1290.3,788.9,1291.7,788.9z M1297,776.7l-1.1,0.4v0.1     c0.5,0.4,0.8,0.8,1,1.2c0.2,0.4,0.3,0.9,0.3,1.6c0,0.8-0.2,1.4-0.7,1.9c-0.4,0.4-1.1,0.7-1.9,0.7c-0.9,0-1.5-0.3-1.9-0.9     c-0.4-0.6-0.6-1.5-0.7-2.8l0-1.4h-0.4c-0.8,0-1.2,0.4-1.2,1.3c0,0.7,0.2,1.4,0.6,2.3l-1.5,0.7c-0.5-0.9-0.7-2-0.7-3.1     c0-1.1,0.2-1.9,0.7-2.5s1.2-0.9,2.2-0.9h5.5V776.7z M1293.2,777.4l0,0.9c0,0.6,0.1,1.1,0.3,1.5c0.2,0.3,0.5,0.5,1,0.5     c0.6,0,0.9-0.4,0.9-1.1c0-0.5-0.2-0.9-0.4-1.2c-0.3-0.3-0.7-0.5-1.2-0.5H1293.2z"/></g><g id="A-419-floor4"><path id="aud15" class="f41" d="M1311,771c0-1.1,0.9-2,2-2h26c1.1,0,2,0.9,2,2v56c0,1.1-0.9,2-2,2h-26c-1.1,0-2-0.9-2-2V771z"/><path id="aud15_0" class="f42" d="M1332,814.5l-3.1,0.9v4.7l3.1,0.9v2.9l-12.9-4.5v-3.3l12.9-4.6V814.5z M1326.7,816.1     c-2.8,0.9-4.3,1.3-4.7,1.5c-0.4,0.1-0.6,0.2-0.9,0.2c0.8,0.2,2.6,0.7,5.6,1.7V816.1z M1328.3,811h-2.2v-4.7h2.2V811z      M1329.3,795.8v1.5h2.7v2.7h-2.7v5.5h-1.9l-8.3-5.6v-2.5h8.1v-1.5H1329.3z M1327.2,800h-2.2c-0.4,0-0.9,0-1.6,0     c-0.7,0-1.1-0.1-1.2-0.1v0.1c0.5,0.2,0.9,0.5,1.4,0.8l3.6,2.4V800z M1332,788.1v2.7h-7.4l-1.2,0l-1.3,0c0.4,0.5,0.7,0.8,0.9,0.9     l1.2,1.5l-1.6,1.3l-3.3-4.1v-2.2H1332z M1324.6,775.6c2.5,0,4.4,0.5,5.7,1.6c1.2,1.1,1.9,2.7,1.9,4.8c0,0.8-0.1,1.3-0.1,1.7h-2.2     c0.1-0.5,0.2-1,0.2-1.5c0-0.9-0.1-1.7-0.4-2.2s-0.7-1-1.2-1.3c-0.6-0.3-1.4-0.5-2.4-0.5v0.1c0.5,0.3,0.9,0.7,1.2,1.2     c0.2,0.4,0.3,1,0.3,1.7c0,1.1-0.4,2-1.1,2.6c-0.7,0.6-1.7,1-3,1c-1.4,0-2.5-0.4-3.3-1.2c-0.8-0.8-1.2-1.9-1.2-3.2     c0-0.9,0.2-1.8,0.7-2.5c0.4-0.7,1.1-1.3,1.9-1.6C1322.5,775.7,1323.5,775.6,1324.6,775.6z M1321.2,780.2c0,0.6,0.2,1,0.6,1.3     c0.4,0.3,0.9,0.5,1.7,0.5c0.6,0,1.1-0.1,1.5-0.4c0.4-0.3,0.5-0.7,0.5-1.3c0-0.6-0.2-1-0.5-1.4c-0.4-0.4-0.8-0.6-1.2-0.6     c-0.7,0-1.3,0.2-1.8,0.6C1321.4,779.2,1321.2,779.6,1321.2,780.2z"/></g><g id="A-439-floor4"><path id="aud16" class="f41" d="M1346,771c0-1.1,0.9-2,2-2h26c1.1,0,2,0.9,2,2v56c0,1.1-0.9,2-2,2h-26c-1.1,0-2-0.9-2-2V771z"/><path id="aud16_0" class="f42" d="M1368,814.5l-3.1,0.9v4.7l3.1,0.9v2.9l-12.9-4.5v-3.3l12.9-4.6V814.5z M1362.7,816.1     c-2.8,0.9-4.3,1.3-4.7,1.5c-0.4,0.1-0.6,0.2-0.9,0.2c0.8,0.2,2.6,0.7,5.6,1.7V816.1z M1364.3,811h-2.2v-4.7h2.2V811z      M1365.3,795.8v1.5h2.7v2.7h-2.7v5.5h-1.9l-8.3-5.6v-2.5h8.1v-1.5H1365.3z M1363.2,800h-2.2c-0.4,0-0.9,0-1.6,0     c-0.7,0-1.1-0.1-1.2-0.1v0.1c0.5,0.2,0.9,0.5,1.4,0.8l3.6,2.4V800z M1358,786.3c0.8,0,1.5,0.2,2,0.7c0.6,0.5,1,1.2,1.2,2h0.1     c0.1-1,0.4-1.8,0.9-2.4s1.2-0.8,2-0.8c1.2,0,2.2,0.4,2.9,1.3c0.7,0.9,1,2.2,1,3.8c0,1.4-0.2,2.6-0.7,3.7h-2.3     c0.2-0.5,0.5-1,0.6-1.6c0.1-0.6,0.2-1.2,0.2-1.8c0-0.9-0.2-1.6-0.5-2c-0.3-0.4-0.8-0.6-1.5-0.6c-0.6,0-1,0.2-1.3,0.7     c-0.2,0.5-0.4,1.3-0.4,2.4v1h-2.1v-1c0-1-0.1-1.7-0.4-2.2c-0.3-0.5-0.7-0.7-1.3-0.7c-1,0-1.5,0.6-1.5,1.8c0,0.4,0.1,0.9,0.2,1.3     c0.1,0.4,0.4,0.9,0.7,1.5l-1.9,1.3c-0.8-1.2-1.3-2.6-1.3-4.2c0-1.3,0.3-2.4,0.8-3.1C1356.3,786.7,1357.1,786.3,1358,786.3z      M1360.6,775.6c2.5,0,4.4,0.5,5.7,1.6c1.2,1.1,1.9,2.7,1.9,4.8c0,0.8-0.1,1.3-0.1,1.7h-2.2c0.1-0.5,0.2-1,0.2-1.5     c0-0.9-0.1-1.7-0.4-2.2s-0.7-1-1.2-1.3c-0.6-0.3-1.4-0.5-2.4-0.5v0.1c0.5,0.3,0.9,0.7,1.2,1.2c0.2,0.4,0.3,1,0.3,1.7     c0,1.1-0.4,2-1.1,2.6c-0.7,0.6-1.7,1-3,1c-1.4,0-2.5-0.4-3.3-1.2c-0.8-0.8-1.2-1.9-1.2-3.2c0-0.9,0.2-1.8,0.7-2.5     c0.4-0.7,1.1-1.3,1.9-1.6C1358.5,775.7,1359.5,775.6,1360.6,775.6z M1357.2,780.2c0,0.6,0.2,1,0.6,1.3c0.4,0.3,0.9,0.5,1.7,0.5     c0.6,0,1.1-0.1,1.5-0.4c0.4-0.3,0.5-0.7,0.5-1.3c0-0.6-0.2-1-0.5-1.4c-0.4-0.4-0.8-0.6-1.2-0.6c-0.7,0-1.3,0.2-1.8,0.6     C1357.4,779.2,1357.2,779.6,1357.2,780.2z"/></g><g id="A-418-floor4"><path id="aud17" class="f41" d="M1416,771c0-1.1,0.9-2,2-2h61c1.1,0,2,0.9,2,2v56c0,1.1-0.9,2-2,2h-61c-1.1,0-2-0.9-2-2V771z"/><path id="aud17_0" class="f42" d="M1432.5,806l-0.9-3.1h-4.7l-0.9,3.1h-2.9l4.5-12.9h3.3l4.6,12.9H1432.5z M1430.9,800.7     c-0.9-2.8-1.3-4.3-1.5-4.7c-0.1-0.4-0.2-0.6-0.2-0.9c-0.2,0.8-0.7,2.6-1.7,5.6H1430.9z M1436,802.3v-2.2h4.7v2.2H1436z      M1451.2,803.3h-1.5v2.7h-2.7v-2.7h-5.5v-1.9l5.6-8.3h2.5v8.1h1.5V803.3z M1447,801.2V799c0-0.4,0-0.9,0-1.6     c0-0.7,0.1-1.1,0.1-1.2h-0.1c-0.2,0.5-0.5,0.9-0.8,1.4l-2.3,3.6H1447z M1458.9,806h-2.7v-7.4l0-1.2l0-1.3     c-0.5,0.5-0.8,0.7-0.9,0.9l-1.5,1.2l-1.3-1.6l4.1-3.3h2.2V806z M1466.9,793c1.2,0,2.2,0.3,3,0.8c0.8,0.6,1.1,1.3,1.1,2.3     c0,0.7-0.2,1.2-0.6,1.8c-0.4,0.5-0.9,1-1.8,1.4c1,0.5,1.7,1.1,2.1,1.6c0.4,0.6,0.6,1.2,0.6,1.8c0,1.1-0.4,1.9-1.2,2.5     c-0.8,0.6-1.9,1-3.3,1c-1.4,0-2.5-0.3-3.3-0.9c-0.8-0.6-1.2-1.4-1.2-2.5c0-0.7,0.2-1.4,0.6-2c0.4-0.6,1-1.1,1.9-1.5     c-0.7-0.5-1.3-1-1.6-1.5c-0.3-0.5-0.5-1.1-0.5-1.7c0-0.9,0.4-1.7,1.2-2.2C1464.7,793.3,1465.7,793,1466.9,793z M1464.9,802.6     c0,0.5,0.2,0.9,0.5,1.2c0.3,0.3,0.8,0.4,1.4,0.4c0.7,0,1.2-0.1,1.5-0.4c0.3-0.3,0.5-0.7,0.5-1.2c0-0.4-0.2-0.8-0.5-1.1     c-0.3-0.3-0.9-0.7-1.6-1.1C1465.6,801,1464.9,801.7,1464.9,802.6z M1466.9,795c-0.5,0-0.8,0.1-1.1,0.4c-0.3,0.2-0.4,0.6-0.4,0.9     c0,0.4,0.1,0.7,0.3,1c0.2,0.3,0.6,0.6,1.2,0.9c0.6-0.3,1-0.5,1.2-0.8s0.3-0.6,0.3-1c0-0.4-0.1-0.7-0.4-1     C1467.8,795.1,1467.4,795,1466.9,795z"/></g><g id="A-417-floor4"><path id="aud18" class="f41" d="M1486,771c0-1.1,0.9-2,2-2h26c1.1,0,2,0.9,2,2v56c0,1.1-0.9,2-2,2h-26c-1.1,0-2-0.9-2-2V771z"/><path id="aud18_0" class="f42" d="M1509,814.5l-3.1,0.9v4.7l3.1,0.9v2.9l-12.9-4.5v-3.3l12.9-4.6V814.5z M1503.7,816.1     c-2.8,0.9-4.3,1.3-4.7,1.5c-0.4,0.1-0.6,0.2-0.9,0.2c0.8,0.2,2.6,0.7,5.6,1.7V816.1z M1505.3,811h-2.2v-4.7h2.2V811z      M1506.3,795.8v1.5h2.7v2.7h-2.7v5.5h-1.9l-8.3-5.6v-2.5h8.1v-1.5H1506.3z M1504.2,800h-2.2c-0.4,0-0.9,0-1.6,0     c-0.7,0-1.1-0.1-1.2-0.1v0.1c0.5,0.2,0.9,0.5,1.4,0.8l3.6,2.4V800z M1509,788.1v2.7h-7.4l-1.2,0l-1.3,0c0.4,0.5,0.7,0.8,0.9,0.9     l1.2,1.5l-1.6,1.3l-3.3-4.1v-2.2H1509z M1509,783.2l-10.6-4.8v6.3h-2.3v-9.2h1.7l11.1,4.9V783.2z"/></g><g id="A-416-floor4"><path id="aud19" class="f41" d="M1521,771c0-1.1,0.9-2,2-2h26c1.1,0,2,0.9,2,2v56c0,1.1-0.9,2-2,2h-26c-1.1,0-2-0.9-2-2V771z"/><path id="aud19_0" class="f42" d="M1543,814.5l-3.1,0.9v4.7l3.1,0.9v2.9l-12.9-4.5v-3.3l12.9-4.6V814.5z M1537.7,816.1     c-2.8,0.9-4.3,1.3-4.7,1.5c-0.4,0.1-0.6,0.2-0.9,0.2c0.8,0.2,2.6,0.7,5.6,1.7V816.1z M1539.3,811h-2.2v-4.7h2.2V811z      M1540.3,795.8v1.5h2.7v2.7h-2.7v5.5h-1.9l-8.3-5.6v-2.5h8.1v-1.5H1540.3z M1538.2,800h-2.2c-0.4,0-0.9,0-1.6,0     c-0.7,0-1.1-0.1-1.2-0.1v0.1c0.5,0.2,0.9,0.5,1.4,0.8l3.6,2.4V800z M1543,788.1v2.7h-7.4l-1.2,0l-1.3,0c0.4,0.5,0.7,0.8,0.9,0.9     l1.2,1.5l-1.6,1.3l-3.3-4.1v-2.2H1543z M1537.5,784.6c-2.5,0-4.4-0.5-5.7-1.6c-1.2-1.1-1.9-2.7-1.9-4.8c0-0.7,0-1.3,0.1-1.7h2.2     c-0.1,0.5-0.2,1-0.2,1.5c0,0.9,0.1,1.7,0.4,2.3c0.3,0.6,0.7,1,1.2,1.3c0.5,0.3,1.3,0.5,2.3,0.5V782c-1-0.6-1.5-1.5-1.5-2.8     c0-1.1,0.4-2,1.1-2.7c0.7-0.7,1.7-1,3-1c1.4,0,2.5,0.4,3.3,1.2c0.8,0.8,1.2,1.8,1.2,3.2c0,0.9-0.2,1.8-0.7,2.5     c-0.4,0.7-1.1,1.2-1.9,1.6C1539.8,784.4,1538.7,784.6,1537.5,784.6z M1541,779.9c0-0.6-0.2-1-0.6-1.3c-0.4-0.3-0.9-0.5-1.7-0.5     c-0.6,0-1.1,0.1-1.5,0.4c-0.4,0.3-0.6,0.7-0.6,1.3c0,0.6,0.2,1,0.5,1.4c0.4,0.4,0.8,0.6,1.2,0.6c0.7,0,1.3-0.2,1.8-0.5     C1540.8,781,1541,780.5,1541,779.9z"/></g><g id="A-421-1-floor4"><path id="aud20" class="f41" d="M1241,871c0-1.1,0.9-2,2-2h26c1.1,0,2,0.9,2,2v56c0,1.1-0.9,2-2,2h-26c-1.1,0-2-0.9-2-2V871z"/><path id="aud20_0" class="f42" d="M1262,916.6l-2.4,0.7v3.6l2.4,0.7v2.3l-10-3.5v-2.6l10-3.5V916.6z M1257.8,917.9     c-2.2,0.7-3.4,1-3.7,1.1c-0.3,0.1-0.5,0.1-0.7,0.2c0.6,0.2,2,0.6,4.3,1.3V917.9z M1259.1,913.9h-1.7v-3.7h1.7V913.9z M1259.9,902     v1.2h2.1v2.1h-2.1v4.3h-1.5l-6.4-4.4v-1.9h6.3V902H1259.9z M1258.3,905.3h-1.7c-0.3,0-0.7,0-1.2,0s-0.8,0-0.9-0.1v0.1     c0.4,0.2,0.7,0.4,1.1,0.6l2.8,1.8V905.3z M1262,894.3v7h-1.5l-2.5-2.5c-0.8-0.7-1.3-1.2-1.6-1.5c-0.3-0.2-0.6-0.4-0.8-0.5     c-0.2-0.1-0.5-0.2-0.8-0.2c-0.4,0-0.7,0.1-0.9,0.3c-0.2,0.2-0.3,0.5-0.3,0.9c0,0.4,0.1,0.8,0.3,1.1c0.2,0.4,0.4,0.7,0.8,1.1     l-1.4,1.1c-0.4-0.5-0.7-0.9-0.9-1.2c-0.2-0.3-0.3-0.7-0.4-1.1c-0.1-0.4-0.2-0.8-0.2-1.3c0-0.6,0.1-1.2,0.3-1.7     c0.2-0.5,0.6-0.8,1-1.1c0.4-0.3,0.9-0.4,1.4-0.4c0.5,0,0.9,0.1,1.3,0.2c0.4,0.2,0.8,0.4,1.2,0.8c0.4,0.3,1,0.9,1.8,1.8l1.2,1.3     h0.1v-4.4H1262z M1262,888v2.1h-5.8l-0.9,0l-1,0c0.3,0.3,0.6,0.6,0.7,0.7l0.9,1.1l-1.3,1l-2.6-3.2V888H1262z M1259.1,885.4h-1.7     v-3.7h1.7V885.4z M1262,875.5v2.1h-5.8l-0.9,0l-1,0c0.3,0.4,0.6,0.6,0.7,0.7l0.9,1.1l-1.3,1l-2.6-3.2v-1.7H1262z"/></g><g id="A-422-floor4"><path id="aud21" class="f41" d="M1313,899c-1.1,0-2-0.9-2-2v-26c0-1.1,0.9-2,2-2h61c1.1,0,2,0.9,2,2v26c0,1.1-0.9,2-2,2H1313z"/><path id="aud21_0" class="f42" d="M1327.5,891l-0.9-3.1h-4.7l-0.9,3.1h-2.9l4.5-12.9h3.3l4.6,12.9H1327.5z M1325.9,885.7     c-0.9-2.8-1.3-4.3-1.5-4.7c-0.1-0.4-0.2-0.6-0.2-0.9c-0.2,0.8-0.7,2.6-1.7,5.6H1325.9z M1331,887.3v-2.2h4.7v2.2H1331z      M1346.2,888.3h-1.5v2.7h-2.7v-2.7h-5.5v-1.9l5.6-8.3h2.5v8.1h1.5V888.3z M1342,886.2V884c0-0.4,0-0.9,0-1.6     c0-0.7,0.1-1.1,0.1-1.2h-0.1c-0.2,0.5-0.5,0.9-0.8,1.4l-2.3,3.6H1342z M1356.2,891h-9v-1.9l3.2-3.3c1-1,1.6-1.7,1.9-2     c0.3-0.4,0.5-0.7,0.6-1.1c0.1-0.3,0.2-0.7,0.2-1c0-0.5-0.2-0.9-0.4-1.2c-0.3-0.3-0.7-0.4-1.1-0.4c-0.5,0-1,0.1-1.4,0.3     c-0.5,0.2-1,0.6-1.5,1l-1.5-1.7c0.6-0.5,1.2-0.9,1.6-1.1c0.4-0.2,0.9-0.4,1.4-0.5c0.5-0.1,1.1-0.2,1.7-0.2c0.8,0,1.5,0.1,2.1,0.4     c0.6,0.3,1.1,0.7,1.4,1.2c0.3,0.5,0.5,1.1,0.5,1.8c0,0.6-0.1,1.1-0.3,1.7c-0.2,0.5-0.5,1-1,1.6c-0.4,0.5-1.2,1.3-2.3,2.3     l-1.7,1.6v0.1h5.6V891z M1366.5,891h-9v-1.9l3.2-3.3c1-1,1.6-1.7,1.9-2c0.3-0.4,0.5-0.7,0.6-1.1c0.1-0.3,0.2-0.7,0.2-1     c0-0.5-0.1-0.9-0.4-1.2c-0.3-0.3-0.7-0.4-1.1-0.4c-0.5,0-1,0.1-1.5,0.3c-0.5,0.2-1,0.6-1.5,1l-1.5-1.7c0.6-0.5,1.2-0.9,1.6-1.1     c0.4-0.2,0.9-0.4,1.4-0.5c0.5-0.1,1-0.2,1.6-0.2c0.8,0,1.5,0.1,2.1,0.4c0.6,0.3,1.1,0.7,1.4,1.2c0.3,0.5,0.5,1.1,0.5,1.8     c0,0.6-0.1,1.1-0.3,1.7c-0.2,0.5-0.5,1-1,1.6c-0.4,0.5-1.2,1.3-2.3,2.3l-1.7,1.6v0.1h5.6V891z"/></g><g id="A-424-floor4"><path id="aud22" class="f41" d="M1313,929c-1.1,0-2-0.9-2-2v-21c0-1.1,0.9-2,2-2h61c1.1,0,2,0.9,2,2v21c0,1.1-0.9,2-2,2H1313z"/><path id="aud22_0" class="f42" d="M1327.5,922l-0.9-3.1h-4.7l-0.9,3.1h-2.9l4.5-12.9h3.3l4.6,12.9H1327.5z M1325.9,916.7     c-0.9-2.8-1.3-4.3-1.5-4.7c-0.1-0.4-0.2-0.6-0.2-0.9c-0.2,0.8-0.7,2.6-1.7,5.6H1325.9z M1331,918.3v-2.2h4.7v2.2H1331z      M1346.2,919.3h-1.5v2.7h-2.7v-2.7h-5.5v-1.9l5.6-8.3h2.5v8.1h1.5V919.3z M1342,917.2V915c0-0.4,0-0.9,0-1.6     c0-0.7,0.1-1.1,0.1-1.2h-0.1c-0.2,0.5-0.5,0.9-0.8,1.4l-2.3,3.6H1342z M1356.2,922h-9v-1.9l3.2-3.3c1-1,1.6-1.7,1.9-2     c0.3-0.4,0.5-0.7,0.6-1.1c0.1-0.3,0.2-0.7,0.2-1c0-0.5-0.2-0.9-0.4-1.2c-0.3-0.3-0.7-0.4-1.1-0.4c-0.5,0-1,0.1-1.4,0.3     c-0.5,0.2-1,0.6-1.5,1l-1.5-1.7c0.6-0.5,1.2-0.9,1.6-1.1c0.4-0.2,0.9-0.4,1.4-0.5c0.5-0.1,1.1-0.2,1.7-0.2c0.8,0,1.5,0.1,2.1,0.4     c0.6,0.3,1.1,0.7,1.4,1.2c0.3,0.5,0.5,1.1,0.5,1.8c0,0.6-0.1,1.1-0.3,1.7c-0.2,0.5-0.5,1-1,1.6c-0.4,0.5-1.2,1.3-2.3,2.3     l-1.7,1.6v0.1h5.6V922z M1366.8,919.3h-1.6v2.7h-2.7v-2.7h-5.5v-1.9l5.6-8.3h2.5v8.1h1.6V919.3z M1362.6,917.2V915     c0-0.4,0-0.9,0-1.6c0-0.7,0.1-1.1,0.1-1.2h-0.1c-0.2,0.5-0.5,0.9-0.8,1.4l-2.4,3.6H1362.6z"/></g><g id="A-423-1-floor4"><path id="aud23" class="f41" d="M1416,871c0-1.1,0.9-2,2-2h26c1.1,0,2,0.9,2,2v56c0,1.1-0.9,2-2,2h-26c-1.1,0-2-0.9-2-2V871z"/><path id="aud23_0" class="f42" d="M1437,916.6l-2.4,0.7v3.6l2.4,0.7v2.3l-10-3.5v-2.6l10-3.5V916.6z M1432.8,917.9     c-2.2,0.7-3.4,1-3.7,1.1c-0.3,0.1-0.5,0.1-0.7,0.2c0.6,0.2,2,0.6,4.3,1.3V917.9z M1434.1,913.9h-1.7v-3.7h1.7V913.9z M1434.9,902     v1.2h2.1v2.1h-2.1v4.3h-1.5l-6.4-4.4v-1.9h6.3V902H1434.9z M1433.3,905.3h-1.7c-0.3,0-0.7,0-1.2,0s-0.8,0-0.9-0.1v0.1     c0.4,0.2,0.7,0.4,1.1,0.6l2.8,1.8V905.3z M1437,894.3v7h-1.5l-2.5-2.5c-0.8-0.7-1.3-1.2-1.6-1.5c-0.3-0.2-0.6-0.4-0.8-0.5     c-0.2-0.1-0.5-0.2-0.8-0.2c-0.4,0-0.7,0.1-0.9,0.3c-0.2,0.2-0.3,0.5-0.3,0.9c0,0.4,0.1,0.8,0.3,1.1c0.2,0.4,0.4,0.7,0.8,1.1     l-1.4,1.1c-0.4-0.5-0.7-0.9-0.9-1.2c-0.2-0.3-0.3-0.7-0.4-1.1c-0.1-0.4-0.2-0.8-0.2-1.3c0-0.6,0.1-1.2,0.3-1.7     c0.2-0.5,0.6-0.8,1-1.1c0.4-0.3,0.9-0.4,1.4-0.4c0.5,0,0.9,0.1,1.3,0.2c0.4,0.2,0.8,0.4,1.2,0.8c0.4,0.3,1,0.9,1.8,1.8l1.2,1.3     h0.1v-4.4H1437z M1429.2,886.7c0.6,0,1.2,0.2,1.6,0.6c0.4,0.4,0.7,0.9,0.9,1.6h0c0.1-0.8,0.3-1.4,0.7-1.8     c0.4-0.4,0.9-0.6,1.6-0.6c1,0,1.7,0.3,2.2,1c0.5,0.7,0.8,1.7,0.8,3c0,1.1-0.2,2-0.5,2.9h-1.8c0.2-0.4,0.3-0.8,0.5-1.3     c0.1-0.5,0.2-0.9,0.2-1.4c0-0.7-0.1-1.2-0.3-1.5c-0.2-0.3-0.6-0.5-1.2-0.5c-0.5,0-0.8,0.2-1,0.6c-0.2,0.4-0.3,1-0.3,1.8v0.8h-1.6     V891c0-0.8-0.1-1.3-0.3-1.7c-0.2-0.4-0.6-0.5-1-0.5c-0.8,0-1.1,0.5-1.1,1.4c0,0.3,0.1,0.7,0.2,1c0.1,0.3,0.3,0.7,0.6,1.1l-1.5,1     c-0.7-0.9-1-2-1-3.3c0-1,0.2-1.9,0.6-2.4C1427.9,887,1428.5,886.7,1429.2,886.7z M1434.1,885.4h-1.7v-3.7h1.7V885.4z M1437,875.5     v2.1h-5.8l-0.9,0l-1,0c0.3,0.4,0.6,0.6,0.7,0.7l0.9,1.1l-1.3,1l-2.6-3.2v-1.7H1437z"/></g><g id="A-423-floor4"><path id="aud24" class="f41" d="M1451,871c0-1.1,0.9-2,2-2h26c1.1,0,2,0.9,2,2v56c0,1.1-0.9,2-2,2h-26c-1.1,0-2-0.9-2-2V871z"/><path id="aud24_0" class="f42" d="M1473,914.5l-3.1,0.9v4.7l3.1,0.9v2.9l-12.9-4.5v-3.3l12.9-4.6V914.5z M1467.7,916.1     c-2.8,0.9-4.3,1.3-4.7,1.5c-0.4,0.1-0.6,0.2-0.9,0.2c0.8,0.2,2.6,0.7,5.6,1.7V916.1z M1469.3,911h-2.2v-4.7h2.2V911z      M1470.3,895.8v1.5h2.7v2.7h-2.7v5.5h-1.9l-8.3-5.6v-2.5h8.1v-1.5H1470.3z M1468.2,900h-2.2c-0.4,0-0.9,0-1.6,0     c-0.7,0-1.1-0.1-1.2-0.1v0.1c0.5,0.2,0.9,0.5,1.4,0.8l3.6,2.4V900z M1473,885.8v9h-1.9l-3.3-3.2c-1-1-1.7-1.6-2-1.9     c-0.4-0.3-0.7-0.5-1.1-0.6c-0.3-0.1-0.7-0.2-1-0.2c-0.5,0-0.9,0.1-1.2,0.4c-0.2,0.3-0.4,0.7-0.4,1.1c0,0.5,0.1,1,0.3,1.4     c0.2,0.5,0.6,1,1,1.5l-1.8,1.5c-0.5-0.6-0.9-1.2-1.1-1.6c-0.2-0.4-0.4-0.9-0.5-1.4s-0.2-1-0.2-1.7c0-0.8,0.1-1.5,0.4-2.1     c0.3-0.6,0.7-1.1,1.2-1.4c0.5-0.3,1.1-0.5,1.8-0.5c0.6,0,1.1,0.1,1.7,0.3c0.5,0.2,1,0.5,1.6,1c0.5,0.4,1.3,1.2,2.3,2.3l1.5,1.7     h0.1v-5.6H1473z M1463,876c0.8,0,1.5,0.2,2,0.7c0.6,0.5,1,1.2,1.2,2h0.1c0.1-1,0.4-1.8,0.9-2.4c0.5-0.5,1.2-0.8,2-0.8     c1.2,0,2.2,0.4,2.9,1.3c0.7,0.9,1,2.2,1,3.8c0,1.4-0.2,2.6-0.7,3.7h-2.3c0.2-0.5,0.5-1,0.6-1.6c0.1-0.6,0.2-1.2,0.2-1.8     c0-0.9-0.2-1.6-0.5-2c-0.3-0.4-0.8-0.6-1.5-0.6c-0.6,0-1,0.2-1.3,0.7c-0.2,0.5-0.4,1.3-0.4,2.4v1h-2.1v-1c0-1-0.1-1.7-0.4-2.2     c-0.3-0.5-0.7-0.7-1.3-0.7c-1,0-1.5,0.6-1.5,1.8c0,0.4,0.1,0.9,0.2,1.3c0.1,0.4,0.4,0.9,0.7,1.5l-1.9,1.3     c-0.8-1.2-1.3-2.6-1.3-4.2c0-1.3,0.3-2.4,0.8-3.1C1461.3,876.4,1462.1,876,1463,876z"/></g><g id="A-9a-floor4"><path id="aud26" class="f41" d="M2386,841c0-1.1,0.9-2,2-2h41c1.1,0,2,0.9,2,2v86c0,1.1-0.9,2-2,2h-41c-1.1,0-2-0.9-2-2V841z"/><path id="aud26_0" class="f42" d="M2415,895.5l-3.1,0.9v4.7l3.1,0.9v2.9l-12.9-4.5v-3.3l12.9-4.6V895.5z M2409.7,897.1     c-2.8,0.9-4.3,1.3-4.7,1.5c-0.4,0.1-0.6,0.2-0.9,0.2c0.8,0.2,2.6,0.7,5.6,1.7V897.1z M2411.3,892h-2.2v-4.7h2.2V892z      M2407.6,877.1c2.5,0,4.4,0.5,5.7,1.6c1.2,1.1,1.9,2.7,1.9,4.8c0,0.8-0.1,1.3-0.1,1.7h-2.2c0.1-0.5,0.2-1,0.2-1.5     c0-0.9-0.1-1.7-0.4-2.2s-0.7-1-1.2-1.3c-0.6-0.3-1.4-0.5-2.4-0.5v0.1c0.6,0.3,0.9,0.7,1.2,1.2s0.3,1,0.3,1.7c0,1.1-0.4,2-1.1,2.6     c-0.7,0.6-1.7,1-3,1c-1.4,0-2.5-0.4-3.3-1.2c-0.8-0.8-1.2-1.9-1.2-3.2c0-0.9,0.2-1.8,0.7-2.5c0.4-0.7,1.1-1.3,1.9-1.6     C2405.5,877.3,2406.5,877.1,2407.6,877.1z M2404.2,881.8c0,0.6,0.2,1,0.6,1.3c0.4,0.3,0.9,0.5,1.7,0.5c0.6,0,1.1-0.1,1.5-0.4     c0.4-0.3,0.5-0.7,0.5-1.3c0-0.6-0.2-1-0.5-1.4c-0.4-0.4-0.8-0.6-1.2-0.6c-0.7,0-1.3,0.2-1.8,0.6     C2404.4,880.7,2404.2,881.2,2404.2,881.8z M2415,868.8l-1.3,0.5v0.1c0.6,0.5,1,0.9,1.2,1.4c0.2,0.5,0.3,1.1,0.3,1.9     c0,0.9-0.3,1.7-0.8,2.2c-0.5,0.5-1.3,0.8-2.3,0.8c-1,0-1.8-0.4-2.3-1.1c-0.5-0.7-0.8-1.8-0.8-3.3l-0.1-1.7h-0.4     c-1,0-1.5,0.5-1.5,1.5c0,0.8,0.2,1.7,0.7,2.8l-1.8,0.9c-0.6-1.1-0.9-2.4-0.9-3.8c0-1.3,0.3-2.3,0.9-3c0.6-0.7,1.4-1.1,2.6-1.1     h6.6V868.8z M2410.4,869.6l0,1c0,0.8,0.2,1.4,0.4,1.7c0.3,0.4,0.7,0.6,1.2,0.6c0.8,0,1.1-0.4,1.1-1.3c0-0.6-0.2-1.1-0.5-1.5     c-0.4-0.4-0.8-0.6-1.4-0.6H2410.4z"/></g><g id="A-412-floor4"><path id="aud27" class="f41" d="M2506,771c0-1.1,0.9-2,2-2h26c1.1,0,2,0.9,2,2v56c0,1.1-0.9,2-2,2h-26c-1.1,0-2-0.9-2-2V771z"/><path id="aud27_0" class="f42" d="M2528,814.5l-3.1,0.9v4.7l3.1,0.9v2.9l-12.9-4.5v-3.3l12.9-4.6V814.5z M2522.7,816.1     c-2.8,0.9-4.3,1.3-4.7,1.5c-0.4,0.1-0.6,0.2-0.9,0.2c0.8,0.2,2.6,0.7,5.6,1.7V816.1z M2524.3,811h-2.2v-4.7h2.2V811z      M2525.3,795.8v1.5h2.7v2.7h-2.7v5.5h-1.9l-8.3-5.6v-2.5h8.1v-1.5H2525.3z M2523.2,800h-2.2c-0.4,0-0.9,0-1.6,0     c-0.7,0-1.1-0.1-1.2-0.1v0.1c0.5,0.2,0.9,0.5,1.4,0.8l3.6,2.4V800z M2528,788.1v2.7h-7.4l-1.2,0l-1.3,0c0.4,0.5,0.7,0.8,0.9,0.9     l1.2,1.5l-1.6,1.3l-3.3-4.1v-2.2H2528z M2528,775.5v9h-1.9l-3.3-3.2c-1-1-1.7-1.6-2-1.9c-0.4-0.3-0.7-0.5-1.1-0.6     c-0.3-0.1-0.6-0.2-1-0.2c-0.5,0-0.9,0.1-1.1,0.4c-0.2,0.3-0.4,0.7-0.4,1.1c0,0.5,0.1,1,0.4,1.5c0.2,0.5,0.5,1,1,1.5l-1.8,1.5     c-0.5-0.6-0.9-1.2-1.1-1.6c-0.2-0.4-0.4-0.9-0.5-1.4c-0.1-0.5-0.2-1-0.2-1.7c0-0.8,0.1-1.5,0.4-2.1c0.3-0.6,0.7-1.1,1.2-1.4     c0.5-0.3,1.1-0.5,1.8-0.5c0.6,0,1.1,0.1,1.7,0.3c0.5,0.2,1,0.5,1.6,1c0.5,0.4,1.3,1.2,2.3,2.3l1.6,1.7h0.1v-5.6H2528z"/></g><g id="A-410-floor4"><path id="aud28" class="f41" d="M2541,771c0-1.1,0.9-2,2-2h61c1.1,0,2,0.9,2,2v56c0,1.1-0.9,2-2,2h-61c-1.1,0-2-0.9-2-2V771z"/><path id="aud28_0" class="f42" d="M2558.5,805l-0.9-3.1h-4.7l-0.9,3.1h-2.9l4.5-12.9h3.3l4.5,12.9H2558.5z M2556.9,799.7     c-0.9-2.8-1.3-4.3-1.5-4.7c-0.1-0.4-0.2-0.6-0.2-0.9c-0.2,0.8-0.7,2.6-1.7,5.6H2556.9z M2562,801.3v-2.2h4.7v2.2H2562z      M2577.2,802.3h-1.6v2.7h-2.6v-2.7h-5.5v-1.9l5.6-8.3h2.5v8.1h1.6V802.3z M2573,800.2V798c0-0.4,0-0.9,0-1.6     c0-0.7,0.1-1.1,0.1-1.2h-0.1c-0.2,0.5-0.5,0.9-0.8,1.4l-2.4,3.6H2573z M2584.9,805h-2.7v-7.4l0-1.2l0-1.3     c-0.4,0.5-0.8,0.7-0.9,0.9l-1.5,1.2l-1.3-1.6l4.1-3.3h2.2V805z M2597.4,798.6c0,2.2-0.4,3.9-1.1,5c-0.7,1.1-1.9,1.6-3.4,1.6     c-1.5,0-2.6-0.6-3.4-1.7c-0.8-1.1-1.1-2.8-1.1-4.9c0-2.3,0.4-3.9,1.1-5c0.7-1.1,1.9-1.6,3.4-1.6c1.5,0,2.6,0.6,3.4,1.7     S2597.4,796.4,2597.4,798.6z M2591.1,798.6c0,1.6,0.1,2.7,0.4,3.4c0.3,0.7,0.7,1,1.4,1c0.6,0,1.1-0.3,1.4-1     c0.3-0.7,0.4-1.8,0.4-3.4c0-1.6-0.1-2.7-0.4-3.4c-0.3-0.7-0.7-1-1.4-1c-0.6,0-1.1,0.3-1.4,1     C2591.3,795.9,2591.1,797,2591.1,798.6z"/></g><g id="A-408-floor4"><path id="aud29" class="f41" d="M2611,771c0-1.1,0.9-2,2-2h26c1.1,0,2,0.9,2,2v56c0,1.1-0.9,2-2,2h-26c-1.1,0-2-0.9-2-2V771z"/><path id="aud29_0" class="f42" d="M2633,814.5l-3.1,0.9v4.7l3.1,0.9v2.9l-12.9-4.5v-3.3l12.9-4.6V814.5z M2627.7,816.1     c-2.8,0.9-4.3,1.3-4.7,1.5c-0.4,0.1-0.6,0.2-0.9,0.2c0.8,0.2,2.6,0.7,5.6,1.7V816.1z M2629.3,811h-2.2v-4.7h2.2V811z      M2630.3,795.8v1.5h2.7v2.7h-2.7v5.5h-1.9l-8.3-5.6v-2.5h8.1v-1.5H2630.3z M2628.2,800h-2.2c-0.4,0-0.9,0-1.6,0     c-0.7,0-1.1-0.1-1.2-0.1v0.1c0.5,0.2,0.9,0.5,1.4,0.8l3.6,2.4V800z M2626.6,785.9c2.2,0,3.9,0.4,5,1.1c1.1,0.7,1.6,1.9,1.6,3.4     c0,1.5-0.6,2.6-1.7,3.4c-1.1,0.8-2.8,1.1-4.9,1.1c-2.3,0-3.9-0.4-5-1.1c-1.1-0.7-1.6-1.9-1.6-3.4c0-1.5,0.6-2.6,1.7-3.4     C2622.8,786.2,2624.4,785.9,2626.6,785.9z M2626.6,792.1c1.6,0,2.7-0.1,3.4-0.4c0.7-0.3,1-0.7,1-1.4c0-0.6-0.4-1.1-1-1.4     c-0.7-0.3-1.8-0.4-3.4-0.4c-1.6,0-2.7,0.1-3.4,0.4c-0.7,0.3-1,0.7-1,1.4c0,0.6,0.3,1.1,1,1.4C2623.9,792,2625,792.1,2626.6,792.1     z M2620,780.1c0-1.2,0.3-2.2,0.9-3c0.5-0.8,1.3-1.1,2.3-1.1c0.6,0,1.2,0.2,1.8,0.5s1,0.9,1.4,1.8c0.5-1,1.1-1.6,1.6-2.1     c0.6-0.4,1.2-0.6,1.8-0.6c1.1,0,1.9,0.4,2.6,1.2c0.6,0.8,1,1.9,1,3.3c0,1.4-0.3,2.5-0.9,3.3c-0.6,0.8-1.4,1.2-2.5,1.2     c-0.7,0-1.4-0.2-1.9-0.6c-0.6-0.4-1.1-1-1.5-1.9c-0.5,0.7-1,1.3-1.5,1.6c-0.5,0.3-1.1,0.5-1.7,0.5c-0.9,0-1.7-0.4-2.2-1.1     C2620.3,782.3,2620,781.3,2620,780.1z M2629.6,782.1c0.5,0,0.9-0.2,1.2-0.5c0.3-0.4,0.4-0.8,0.4-1.4c0-0.7-0.1-1.2-0.4-1.5     s-0.7-0.5-1.1-0.5c-0.4,0-0.8,0.2-1.1,0.5c-0.4,0.3-0.7,0.9-1.1,1.6C2628,781.4,2628.7,782.1,2629.6,782.1z M2622,780.1     c0,0.5,0.1,0.8,0.4,1.1c0.2,0.3,0.5,0.4,0.9,0.4c0.3,0,0.7-0.1,0.9-0.3c0.3-0.2,0.6-0.6,0.9-1.2c-0.3-0.6-0.5-1-0.8-1.2     c-0.3-0.2-0.6-0.3-1-0.3c-0.4,0-0.7,0.1-1,0.4C2622.1,779.2,2622,779.6,2622,780.1z"/></g><g id="A-406-floor4"><path id="aud30" class="f41" d="M2646,771c0-1.1,0.9-2,2-2h26c1.1,0,2,0.9,2,2v56c0,1.1-0.9,2-2,2h-26c-1.1,0-2-0.9-2-2V771z"/><path id="aud30_0" class="f42" d="M2668,814.5l-3.1,0.9v4.7l3.1,0.9v2.9l-12.9-4.5v-3.3l12.9-4.6V814.5z M2662.7,816.1     c-2.8,0.9-4.3,1.3-4.7,1.5c-0.4,0.1-0.6,0.2-0.9,0.2c0.8,0.2,2.6,0.7,5.6,1.7V816.1z M2664.3,811h-2.2v-4.7h2.2V811z      M2665.3,795.8v1.5h2.7v2.7h-2.7v5.5h-1.9l-8.3-5.6v-2.5h8.1v-1.5H2665.3z M2663.2,800h-2.2c-0.4,0-0.9,0-1.6,0     c-0.7,0-1.1-0.1-1.2-0.1v0.1c0.5,0.2,0.9,0.5,1.4,0.8l3.6,2.4V800z M2661.6,785.9c2.2,0,3.9,0.4,5,1.1c1.1,0.7,1.6,1.9,1.6,3.4     c0,1.5-0.6,2.6-1.7,3.4c-1.1,0.8-2.8,1.1-4.9,1.1c-2.3,0-3.9-0.4-5-1.1c-1.1-0.7-1.6-1.9-1.6-3.4c0-1.5,0.6-2.6,1.7-3.4     C2657.8,786.2,2659.4,785.9,2661.6,785.9z M2661.6,792.1c1.6,0,2.7-0.1,3.4-0.4c0.7-0.3,1-0.7,1-1.4c0-0.6-0.4-1.1-1-1.4     c-0.7-0.3-1.8-0.4-3.4-0.4c-1.6,0-2.7,0.1-3.4,0.4c-0.7,0.3-1,0.7-1,1.4c0,0.6,0.3,1.1,1,1.4C2658.9,792,2660,792.1,2661.6,792.1     z M2662.5,784.6c-2.5,0-4.4-0.5-5.7-1.6c-1.2-1.1-1.9-2.7-1.9-4.8c0-0.7,0-1.3,0.1-1.7h2.2c-0.1,0.5-0.2,1-0.2,1.5     c0,0.9,0.1,1.7,0.4,2.3c0.3,0.6,0.7,1,1.2,1.3c0.6,0.3,1.3,0.5,2.3,0.5V782c-1-0.6-1.5-1.5-1.5-2.8c0-1.1,0.4-2,1.1-2.7     c0.7-0.7,1.7-1,3-1c1.4,0,2.5,0.4,3.3,1.2c0.8,0.8,1.2,1.8,1.2,3.2c0,0.9-0.2,1.8-0.7,2.5c-0.4,0.7-1.1,1.2-1.9,1.6     C2664.8,784.4,2663.7,784.6,2662.5,784.6z M2666,779.9c0-0.6-0.2-1-0.6-1.3c-0.4-0.3-0.9-0.5-1.7-0.5c-0.6,0-1.1,0.1-1.5,0.4     c-0.4,0.3-0.6,0.7-0.6,1.3c0,0.6,0.2,1,0.5,1.4c0.4,0.4,0.8,0.6,1.2,0.6c0.7,0,1.3-0.2,1.8-0.5C2665.8,781,2666,780.5,2666,779.9     z"/></g><g id="A-404-floor4"><path id="aud31" class="f41" d="M2681,771c0-1.1,0.9-2,2-2h61c1.1,0,2,0.9,2,2v56c0,1.1-0.9,2-2,2h-61c-1.1,0-2-0.9-2-2V771z"/><path id="aud31_0" class="f42" d="M2698.5,805l-0.9-3.1h-4.7l-0.9,3.1h-2.9l4.5-12.9h3.3l4.5,12.9H2698.5z M2696.9,799.7     c-0.9-2.8-1.3-4.3-1.5-4.7c-0.1-0.4-0.2-0.6-0.2-0.9c-0.2,0.8-0.7,2.6-1.7,5.6H2696.9z M2702,801.3v-2.2h4.7v2.2H2702z      M2717.2,802.3h-1.6v2.7h-2.6v-2.7h-5.5v-1.9l5.6-8.3h2.5v8.1h1.6V802.3z M2713,800.2V798c0-0.4,0-0.9,0-1.6     c0-0.7,0.1-1.1,0.1-1.2h-0.1c-0.2,0.5-0.5,0.9-0.8,1.4l-2.4,3.6H2713z M2727.1,798.6c0,2.2-0.4,3.9-1.1,5     c-0.7,1.1-1.9,1.6-3.4,1.6c-1.5,0-2.6-0.6-3.3-1.7c-0.8-1.1-1.1-2.8-1.1-4.9c0-2.3,0.4-3.9,1.1-5c0.7-1.1,1.9-1.6,3.4-1.6     c1.5,0,2.6,0.6,3.4,1.7C2726.8,794.8,2727.1,796.4,2727.1,798.6z M2720.9,798.6c0,1.6,0.1,2.7,0.4,3.4c0.3,0.7,0.7,1,1.4,1     c0.6,0,1.1-0.3,1.4-1c0.3-0.7,0.4-1.8,0.4-3.4c0-1.6-0.1-2.7-0.4-3.4c-0.3-0.7-0.7-1-1.4-1c-0.6,0-1.1,0.3-1.4,1     C2721,795.9,2720.9,797,2720.9,798.6z M2737.8,802.3h-1.6v2.7h-2.6v-2.7h-5.5v-1.9l5.6-8.3h2.5v8.1h1.6V802.3z M2733.6,800.2V798     c0-0.4,0-0.9,0-1.6c0-0.7,0.1-1.1,0.1-1.2h-0.1c-0.2,0.5-0.5,0.9-0.8,1.4l-2.4,3.6H2733.6z"/></g><g id="A-402-floor4"><path id="aud32" class="f41" d="M2751,771c0-1.1,0.9-2,2-2h26c1.1,0,2,0.9,2,2v56c0,1.1-0.9,2-2,2h-26c-1.1,0-2-0.9-2-2V771z"/><path id="aud32_0" class="f42" d="M2773,814.5l-3.1,0.9v4.7l3.1,0.9v2.9l-12.9-4.5v-3.3l12.9-4.6V814.5z M2767.7,816.1     c-2.8,0.9-4.3,1.3-4.7,1.5c-0.4,0.1-0.6,0.2-0.9,0.2c0.8,0.2,2.6,0.7,5.6,1.7V816.1z M2769.3,811h-2.2v-4.7h2.2V811z      M2770.3,795.8v1.5h2.7v2.7h-2.7v5.5h-1.9l-8.3-5.6v-2.5h8.1v-1.5H2770.3z M2768.2,800h-2.2c-0.4,0-0.9,0-1.6,0     c-0.7,0-1.1-0.1-1.2-0.1v0.1c0.5,0.2,0.9,0.5,1.4,0.8l3.6,2.4V800z M2766.6,785.9c2.2,0,3.9,0.4,5,1.1c1.1,0.7,1.6,1.9,1.6,3.4     c0,1.5-0.6,2.6-1.7,3.4c-1.1,0.8-2.8,1.1-4.9,1.1c-2.3,0-3.9-0.4-5-1.1c-1.1-0.7-1.6-1.9-1.6-3.4c0-1.5,0.6-2.6,1.7-3.4     C2762.8,786.2,2764.4,785.9,2766.6,785.9z M2766.6,792.1c1.6,0,2.7-0.1,3.4-0.4c0.7-0.3,1-0.7,1-1.4c0-0.6-0.4-1.1-1-1.4     c-0.7-0.3-1.8-0.4-3.4-0.4c-1.6,0-2.7,0.1-3.4,0.4c-0.7,0.3-1,0.7-1,1.4c0,0.6,0.3,1.1,1,1.4C2763.9,792,2765,792.1,2766.6,792.1     z M2773,775.5v9h-1.9l-3.3-3.2c-1-1-1.7-1.6-2-1.9c-0.4-0.3-0.7-0.5-1.1-0.6c-0.3-0.1-0.6-0.2-1-0.2c-0.5,0-0.9,0.1-1.1,0.4     c-0.2,0.3-0.4,0.7-0.4,1.1c0,0.5,0.1,1,0.4,1.5c0.2,0.5,0.5,1,1,1.5l-1.8,1.5c-0.5-0.6-0.9-1.2-1.1-1.6c-0.2-0.4-0.4-0.9-0.5-1.4     c-0.1-0.5-0.2-1-0.2-1.7c0-0.8,0.1-1.5,0.4-2.1c0.3-0.6,0.7-1.1,1.2-1.4c0.5-0.3,1.1-0.5,1.8-0.5c0.6,0,1.1,0.1,1.7,0.3     c0.5,0.2,1,0.5,1.6,1c0.5,0.4,1.3,1.2,2.3,2.3l1.6,1.7h0.1v-5.6H2773z"/></g><g id="A-411-floor4"><path id="aud35" class="f41" d="M2541,871c0-1.1,0.9-2,2-2h26c1.1,0,2,0.9,2,2v56c0,1.1-0.9,2-2,2h-26c-1.1,0-2-0.9-2-2V871z"/><path id="aud35_0" class="f42" d="M2563,914.5l-3.1,0.9v4.7l3.1,0.9v2.9l-12.9-4.5v-3.3l12.9-4.6V914.5z M2557.7,916.1     c-2.8,0.9-4.3,1.3-4.7,1.5c-0.4,0.1-0.6,0.2-0.9,0.2c0.8,0.2,2.6,0.7,5.6,1.7V916.1z M2559.3,911h-2.2v-4.7h2.2V911z      M2560.3,895.8v1.5h2.7v2.7h-2.7v5.5h-1.9l-8.3-5.6v-2.5h8.1v-1.5H2560.3z M2558.2,900h-2.2c-0.4,0-0.9,0-1.6,0     c-0.7,0-1.1-0.1-1.2-0.1v0.1c0.5,0.2,0.9,0.5,1.4,0.8l3.6,2.4V900z M2563,888.1v2.7h-7.4l-1.2,0l-1.3,0c0.4,0.5,0.7,0.8,0.9,0.9     l1.2,1.5l-1.6,1.3l-3.3-4.1v-2.2H2563z M2563,877.8v2.7h-7.4l-1.2,0l-1.3,0c0.4,0.5,0.7,0.8,0.9,0.9l1.2,1.5l-1.6,1.3l-3.3-4.1     v-2.2H2563z"/></g><g id="A-409-floor4"><path id="aud36" class="f41" d="M2576,871c0-1.1,0.9-2,2-2h26c1.1,0,2,0.9,2,2v56c0,1.1-0.9,2-2,2h-26c-1.1,0-2-0.9-2-2V871z"/><path id="aud36_0" class="f42" d="M2598,914.5l-3.1,0.9v4.7l3.1,0.9v2.9l-12.9-4.5v-3.3l12.9-4.6V914.5z M2592.7,916.1     c-2.8,0.9-4.3,1.3-4.7,1.5c-0.4,0.1-0.6,0.2-0.9,0.2c0.8,0.2,2.6,0.7,5.6,1.7V916.1z M2594.3,911h-2.2v-4.7h2.2V911z      M2595.3,895.8v1.5h2.7v2.7h-2.7v5.5h-1.9l-8.3-5.6v-2.5h8.1v-1.5H2595.3z M2593.2,900h-2.2c-0.4,0-0.9,0-1.6,0     c-0.7,0-1.1-0.1-1.2-0.1v0.1c0.5,0.2,0.9,0.5,1.4,0.8l3.6,2.4V900z M2591.6,885.9c2.2,0,3.9,0.4,5,1.1c1.1,0.7,1.6,1.9,1.6,3.4     c0,1.5-0.6,2.6-1.7,3.4c-1.1,0.8-2.8,1.1-4.9,1.1c-2.3,0-3.9-0.4-5-1.1c-1.1-0.7-1.6-1.9-1.6-3.4c0-1.5,0.6-2.6,1.7-3.4     C2587.8,886.2,2589.4,885.9,2591.6,885.9z M2591.6,892.1c1.6,0,2.7-0.1,3.4-0.4c0.7-0.3,1-0.7,1-1.4c0-0.6-0.4-1.1-1-1.4     c-0.7-0.3-1.8-0.4-3.4-0.4c-1.6,0-2.7,0.1-3.4,0.4c-0.7,0.3-1,0.7-1,1.4c0,0.6,0.3,1.1,1,1.4C2588.9,892,2590,892.1,2591.6,892.1     z M2590.6,875.6c2.5,0,4.4,0.5,5.7,1.6c1.2,1.1,1.9,2.7,1.9,4.8c0,0.8-0.1,1.3-0.1,1.7h-2.2c0.1-0.5,0.2-1,0.2-1.5     c0-0.9-0.1-1.7-0.4-2.2s-0.7-1-1.2-1.3c-0.6-0.3-1.4-0.5-2.4-0.5v0.1c0.6,0.3,0.9,0.7,1.2,1.2c0.2,0.4,0.3,1,0.3,1.7     c0,1.1-0.4,2-1.1,2.6c-0.7,0.6-1.7,1-3,1c-1.4,0-2.5-0.4-3.3-1.2c-0.8-0.8-1.2-1.9-1.2-3.2c0-0.9,0.2-1.8,0.7-2.5     c0.4-0.7,1.1-1.3,1.9-1.6C2588.5,875.7,2589.5,875.6,2590.6,875.6z M2587.2,880.2c0,0.6,0.2,1,0.6,1.3c0.4,0.3,0.9,0.5,1.7,0.5     c0.6,0,1.1-0.1,1.5-0.4c0.4-0.3,0.5-0.7,0.5-1.3c0-0.6-0.2-1-0.5-1.4c-0.4-0.4-0.8-0.6-1.2-0.6c-0.7,0-1.3,0.2-1.8,0.6     C2587.4,879.2,2587.2,879.6,2587.2,880.2z"/></g><g id="A-407-floor4"><path id="aud37" class="f41" d="M2611,871c0-1.1,0.9-2,2-2h26c1.1,0,2,0.9,2,2v56c0,1.1-0.9,2-2,2h-26c-1.1,0-2-0.9-2-2V871z"/><path id="aud37_0" class="f42" d="M2633,914.5l-3.1,0.9v4.7l3.1,0.9v2.9l-12.9-4.5v-3.3l12.9-4.6V914.5z M2627.7,916.1     c-2.8,0.9-4.3,1.3-4.7,1.5c-0.4,0.1-0.6,0.2-0.9,0.2c0.8,0.2,2.6,0.7,5.6,1.7V916.1z M2629.3,911h-2.2v-4.7h2.2V911z      M2630.3,895.8v1.5h2.7v2.7h-2.7v5.5h-1.9l-8.3-5.6v-2.5h8.1v-1.5H2630.3z M2628.2,900h-2.2c-0.4,0-0.9,0-1.6,0     c-0.7,0-1.1-0.1-1.2-0.1v0.1c0.5,0.2,0.9,0.5,1.4,0.8l3.6,2.4V900z M2626.6,885.9c2.2,0,3.9,0.4,5,1.1c1.1,0.7,1.6,1.9,1.6,3.4     c0,1.5-0.6,2.6-1.7,3.4c-1.1,0.8-2.8,1.1-4.9,1.1c-2.3,0-3.9-0.4-5-1.1c-1.1-0.7-1.6-1.9-1.6-3.4c0-1.5,0.6-2.6,1.7-3.4     C2622.8,886.2,2624.4,885.9,2626.6,885.9z M2626.6,892.1c1.6,0,2.7-0.1,3.4-0.4c0.7-0.3,1-0.7,1-1.4c0-0.6-0.4-1.1-1-1.4     c-0.7-0.3-1.8-0.4-3.4-0.4c-1.6,0-2.7,0.1-3.4,0.4c-0.7,0.3-1,0.7-1,1.4c0,0.6,0.3,1.1,1,1.4C2623.9,892,2625,892.1,2626.6,892.1     z M2633,883.2l-10.6-4.8v6.3h-2.3v-9.2h1.7l11.1,4.9V883.2z"/></g><g id="A-405-floor4"><path id="aud38" class="f41" d="M2646,871c0-1.1,0.9-2,2-2h26c1.1,0,2,0.9,2,2v56c0,1.1-0.9,2-2,2h-26c-1.1,0-2-0.9-2-2V871z"/><path id="aud38_0" class="f42" d="M2668,914.5l-3.1,0.9v4.7l3.1,0.9v2.9l-12.9-4.5v-3.3l12.9-4.6V914.5z M2662.7,916.1     c-2.8,0.9-4.3,1.3-4.7,1.5c-0.4,0.1-0.6,0.2-0.9,0.2c0.8,0.2,2.6,0.7,5.6,1.7V916.1z M2664.3,911h-2.2v-4.7h2.2V911z      M2665.3,895.8v1.5h2.7v2.7h-2.7v5.5h-1.9l-8.3-5.6v-2.5h8.1v-1.5H2665.3z M2663.2,900h-2.2c-0.4,0-0.9,0-1.6,0     c-0.7,0-1.1-0.1-1.2-0.1v0.1c0.5,0.2,0.9,0.5,1.4,0.8l3.6,2.4V900z M2661.6,885.9c2.2,0,3.9,0.4,5,1.1c1.1,0.7,1.6,1.9,1.6,3.4     c0,1.5-0.6,2.6-1.7,3.4c-1.1,0.8-2.8,1.1-4.9,1.1c-2.3,0-3.9-0.4-5-1.1c-1.1-0.7-1.6-1.9-1.6-3.4c0-1.5,0.6-2.6,1.7-3.4     C2657.8,886.2,2659.4,885.9,2661.6,885.9z M2661.6,892.1c1.6,0,2.7-0.1,3.4-0.4c0.7-0.3,1-0.7,1-1.4c0-0.6-0.4-1.1-1-1.4     c-0.7-0.3-1.8-0.4-3.4-0.4c-1.6,0-2.7,0.1-3.4,0.4c-0.7,0.3-1,0.7-1,1.4c0,0.6,0.3,1.1,1,1.4C2658.9,892,2660,892.1,2661.6,892.1     z M2659.8,879.8c0-1.2,0.3-2.2,1.1-3c0.7-0.7,1.6-1.1,2.9-1.1c1.4,0,2.5,0.4,3.3,1.3c0.8,0.9,1.2,2.2,1.2,3.8     c0,1.4-0.2,2.6-0.7,3.5h-2.4c0.2-0.5,0.5-1,0.6-1.6c0.1-0.6,0.2-1.2,0.2-1.7c0-1.7-0.7-2.5-2-2.5c-1.3,0-1.9,0.9-1.9,2.6     c0,0.3,0,0.7,0.1,1c0.1,0.4,0.1,0.7,0.2,0.9l-0.6,1.1l-6.6-0.5v-7h2.3v4.6l2.5,0.2l-0.1-0.3     C2659.8,880.8,2659.8,880.3,2659.8,879.8z"/></g><g id="A-403-floor4"><path id="aud39" class="f41" d="M2681,871c0-1.1,0.9-2,2-2h26c1.1,0,2,0.9,2,2v56c0,1.1-0.9,2-2,2h-26c-1.1,0-2-0.9-2-2V871z"/><path id="aud39_0" class="f42" d="M2703,914.5l-3.1,0.9v4.7l3.1,0.9v2.9l-12.9-4.5v-3.3l12.9-4.6V914.5z M2697.7,916.1     c-2.8,0.9-4.3,1.3-4.7,1.5c-0.4,0.1-0.6,0.2-0.9,0.2c0.8,0.2,2.6,0.7,5.6,1.7V916.1z M2699.3,911h-2.2v-4.7h2.2V911z      M2700.3,895.8v1.5h2.7v2.7h-2.7v5.5h-1.9l-8.3-5.6v-2.5h8.1v-1.5H2700.3z M2698.2,900h-2.2c-0.4,0-0.9,0-1.6,0     c-0.7,0-1.1-0.1-1.2-0.1v0.1c0.5,0.2,0.9,0.5,1.4,0.8l3.6,2.4V900z M2696.6,885.9c2.2,0,3.9,0.4,5,1.1c1.1,0.7,1.6,1.9,1.6,3.4     c0,1.5-0.6,2.6-1.7,3.4c-1.1,0.8-2.8,1.1-4.9,1.1c-2.3,0-3.9-0.4-5-1.1c-1.1-0.7-1.6-1.9-1.6-3.4c0-1.5,0.6-2.6,1.7-3.4     C2692.8,886.2,2694.4,885.9,2696.6,885.9z M2696.6,892.1c1.6,0,2.7-0.1,3.4-0.4c0.7-0.3,1-0.7,1-1.4c0-0.6-0.4-1.1-1-1.4     c-0.7-0.3-1.8-0.4-3.4-0.4c-1.6,0-2.7,0.1-3.4,0.4c-0.7,0.3-1,0.7-1,1.4c0,0.6,0.3,1.1,1,1.4C2693.9,892,2695,892.1,2696.6,892.1     z M2693,876c0.8,0,1.5,0.2,2.1,0.7c0.6,0.5,0.9,1.2,1.2,2h0.1c0.1-1,0.4-1.8,0.9-2.4c0.5-0.5,1.2-0.8,2-0.8     c1.2,0,2.2,0.4,2.9,1.3c0.7,0.9,1,2.2,1,3.8c0,1.4-0.2,2.6-0.7,3.7h-2.3c0.2-0.5,0.5-1,0.6-1.6c0.1-0.6,0.2-1.2,0.2-1.8     c0-0.9-0.1-1.6-0.4-2c-0.3-0.4-0.8-0.6-1.5-0.6c-0.6,0-1,0.2-1.3,0.7c-0.2,0.5-0.4,1.3-0.4,2.4v1h-2.1v-1c0-1-0.1-1.7-0.4-2.2     c-0.3-0.5-0.7-0.7-1.3-0.7c-1,0-1.5,0.6-1.5,1.8c0,0.4,0.1,0.9,0.2,1.3c0.1,0.4,0.4,0.9,0.7,1.5l-1.9,1.3     c-0.8-1.2-1.3-2.6-1.3-4.2c0-1.3,0.3-2.4,0.8-3.1C2691.3,876.4,2692.1,876,2693,876z"/></g><g id="A-401-floor4"><path id="aud40" class="f41" d="M2716,871c0-1.1,0.9-2,2-2h26c1.1,0,2,0.9,2,2v56c0,1.1-0.9,2-2,2h-26c-1.1,0-2-0.9-2-2V871z"/><path id="aud40_0" class="f42" d="M2738,914.5l-3.1,0.9v4.7l3.1,0.9v2.9l-12.9-4.5v-3.3l12.9-4.6V914.5z M2732.7,916.1     c-2.8,0.9-4.3,1.3-4.7,1.5c-0.4,0.1-0.6,0.2-0.9,0.2c0.8,0.2,2.6,0.7,5.6,1.7V916.1z M2734.3,911h-2.2v-4.7h2.2V911z      M2735.3,895.8v1.5h2.7v2.7h-2.7v5.5h-1.9l-8.3-5.6v-2.5h8.1v-1.5H2735.3z M2733.2,900h-2.2c-0.4,0-0.9,0-1.6,0     c-0.7,0-1.1-0.1-1.2-0.1v0.1c0.5,0.2,0.9,0.5,1.4,0.8l3.6,2.4V900z M2731.6,885.9c2.2,0,3.9,0.4,5,1.1c1.1,0.7,1.6,1.9,1.6,3.4     c0,1.5-0.6,2.6-1.7,3.4c-1.1,0.8-2.8,1.1-4.9,1.1c-2.3,0-3.9-0.4-5-1.1c-1.1-0.7-1.6-1.9-1.6-3.4c0-1.5,0.6-2.6,1.7-3.4     C2727.8,886.2,2729.4,885.9,2731.6,885.9z M2731.6,892.1c1.6,0,2.7-0.1,3.4-0.4c0.7-0.3,1-0.7,1-1.4c0-0.6-0.4-1.1-1-1.4     c-0.7-0.3-1.8-0.4-3.4-0.4c-1.6,0-2.7,0.1-3.4,0.4c-0.7,0.3-1,0.7-1,1.4c0,0.6,0.3,1.1,1,1.4C2728.9,892,2730,892.1,2731.6,892.1     z M2738,877.8v2.7h-7.4l-1.2,0l-1.3,0c0.4,0.5,0.7,0.8,0.9,0.9l1.2,1.5l-1.6,1.3l-3.3-4.1v-2.2H2738z"/></g></g>
<g id="Doors">
	<line class="f47" x1="27.1" y1="836.5" x2="27.1" y2="824" id="A-438" ways="doorlineline35-floor4" length="12.5"/>
	<line class="f47" x1="61.7" y1="835.1" x2="61.7" y2="821.2" id="A-436" ways="doorlineline36-floor4" length="13.899999999999977"/>
	<line class="f47" x1="94.9" y1="834.9" x2="94.9" y2="820.8" id="A-434" ways="doorlineline37-floor4" length="14.100000000000023"/>
	<line class="f47" x1="151" y1="833.4" x2="151" y2="817.8" id="A-433" ways="doorlineline38-floor4" length="15.600000000000023"/>
	<line class="f47" x1="131.9" y1="862.95" x2="131.9" y2="876.9" id="A-427" ways="doorlineline39-floor4" length="13.949999999999932"/>
	<line class="f47" x1="61.7" y1="862.95" x2="61.7" y2="876.9" id="A-429" ways="doorlineline40-floor4" length="13.949999999999932"/>
	<line class="f47" x1="201.9" y1="863.9" x2="201.9" y2="878.8" id="A-425" ways="doorlineline41-floor4" length="14.899999999999977"/>
	<line class="f47" x1="201.9" y1="834.2" x2="201.9" y2="819.4" id="A-430" ways="doorlineline42-floor4" length="14.800000000000068"/>
	<line class="f47" x1="236.6" y1="834.25" x2="236.6" y2="819.5" id="A-428" ways="doorlineline43-floor4" length="14.75"/>
	<line class="f47" x1="270.7" y1="832.55" x2="270.7" y2="816.1" id="A-426" ways="doorlineline44-floor4" length="16.449999999999932"/>
	<line class="f47" x1="270.7" y1="864.25" x2="270.7" y2="879.5" id="A-426-1" ways="doorlineline45-floor4" length="15.25"/>
	<line class="f47" x1="341.2" y1="861.4" x2="341.2" y2="873.8" id="WC-F-A4" ways="doorlineline46-floor4" length="12.399999999999977"/>
	<line class="f47" x1="354.04999999999995" y1="849" x2="366.9" y2="849" id="A-18-1" ways="doorlineline47-floor4" length="12.850000000000023"/>
	<line class="f47" x1="1254.7" y1="849" x2="1254.7" y2="813.2" id="A-420" ways="line13-floor4" length="35.799999999999955"/>
	<line class="f47" x1="1288.9" y1="833.4" x2="1288.9" y2="817.8" id="A-420a" ways="doorlineline49-floor4" length="15.600000000000023"/>
	<line class="f47" x1="1327.2" y1="833.2" x2="1327.2" y2="817.4" id="A-419" ways="doorlineline50-floor4" length="15.800000000000068"/>
	<line class="f47" x1="1361.6" y1="832.55" x2="1361.6" y2="816.1" id="A-439" ways="doorlineline51-floor4" length="16.449999999999932"/>
	<line class="f47" x1="1274" y1="878.2" x2="1259.1" y2="878.2" id="A-421-1" ways="doorlineline52-floor4" length="14.900000000000091"/>
	<line class="f47" x1="1303.45" y1="884.5" x2="1318" y2="884.5" id="A-422" ways="doorlineline53-floor4" length="14.549999999999955"/>
	<line class="f47" x1="1288.9" y1="912.7" x2="1320" y2="912.7" id="A-424" ways="line16-floor4" length="31.09999999999991"/>
	<line class="f47" x1="1429.4" y1="865.95" x2="1429.4" y2="882.9" id="A-423-1" ways="doorlineline55-floor4" length="16.949999999999932"/>
	<line class="f47" x1="1487.0500000000002" y1="878" x2="1473.2" y2="878" id="line56" ways="doorlineline56-floor4" length="13.850000000000136"/>
	<line class="f47" x1="1500.9" y1="919.2" x2="1526.5" y2="919.2" id="WC-FM-A4" ways="line25-floor4" length="25.59999999999991"/>
	<line x1="1500.9" y1="836.5" x2="1500.9" y2="824" stroke="#00FF00" id="A-417" ways="doorlineline58-floor4" length="12.5"/>
	<line class="f47" x1="1536" y1="849" x2="1536" y2="822" id="A-416" ways="line23-floor4" length="27"/>
	<line class="f47" x1="1466.9" y1="833.2" x2="1466.9" y2="817.4" id="A-418" ways="doorlineline60-floor4" length="15.800000000000068"/>
	<line class="f47" x1="2397.1" y1="819.4" x2="2397.1" y2="847.4" id="A-9a" ways="line26-floor4" length="28"/>
	<line class="f47" x1="2451.2" y1="848.9" x2="2451.2" y2="878.4" id="WC-M-A4-1" ways="doorlineline62-floor4" length="29.5"/>
	<line class="f47" x1="2519.9" y1="834.2" x2="2519.9" y2="819.4" id="A-412" ways="doorlineline63-floor4" length="14.800000000000068"/>
	<line class="f47" x1="2554.9" y1="834.2" x2="2554.9" y2="819.4" id="A-410" ways="doorlineline64-floor4" length="14.800000000000068"/>
	<line class="f47" x1="2519.9" y1="862.25" x2="2519.9" y2="875.5" id="WC-F-A4-1" ways="doorlineline65-floor4" length="13.25"/>
	<line class="f47" x1="2554.9" y1="862.55" x2="2554.9" y2="876.1" id="A-411" ways="doorlineline66-floor4" length="13.550000000000068"/>
	<line class="f47" x1="2591" y1="861" x2="2591" y2="873" id="A-409" ways="doorlineline67-floor4" length="12"/>
	<line class="f47" x1="2627.1" y1="834.2" x2="2627.1" y2="819.4" id="A-408" ways="doorlineline68-floor4" length="14.800000000000068"/>
	<line class="f47" x1="2627.1" y1="863.4" x2="2627.1" y2="877.8" id="A-407" ways="doorlineline69-floor4" length="14.399999999999977"/>
	<line class="f47" x1="2661.6" y1="862.25" x2="2661.6" y2="875.5" id="A-405" ways="doorlineline70-floor4" length="13.25"/>
	<line class="f47" x1="2661.6" y1="835.4" x2="2661.6" y2="821.8" id="A-406" ways="doorlineline71-floor4" length="13.600000000000023"/>
	<line class="f47" x1="2696" y1="832.55" x2="2696" y2="816.1" id="A-404" ways="doorlineline72-floor4" length="16.449999999999932"/>
	<line class="f47" x1="2696" y1="862.25" x2="2696" y2="875.5" id="A-403" ways="doorlineline73-floor4" length="13.25"/>
	<line x1="2732.1" y1="861" x2="2732.1" y2="873" stroke="#00FF00" id="A-401" ways="doorlineline74-floor4" length="12"/>
	<line class="f47" x1="2764.9" y1="834.2" x2="2764.9" y2="819.4" id="A-402" ways="doorlineline75-floor4" length="14.800000000000068"/>
</g>
<g id="Paths">
	<line class="f48" x1="341.2" y1="849" x2="306" y2="849" id="line0-floor4" ways="line3-floor4,line12-floor4,doorlineline46-floor4,doorlineline47-floor4,Stair.19.floor4" length="35.19999999999999"/>
	<line class="f45" x1="2696" y1="849" x2="2732.1" y2="849" id="line1-floor4" ways="line2-floor4,line4-floor4,doorlineline72-floor4,doorlineline73-floor4,doorlineline74-floor4" length="36.09999999999991"/><line class="f44" x1="2661.6" y1="849" x2="2696" y2="849" id="line2-floor4" ways="line1-floor4,line34-floor4,doorlineline70-floor4,doorlineline71-floor4,doorlineline72-floor4,doorlineline73-floor4" length="34.40000000000009"/><line class="f48" x1="306" y1="849" x2="270.7" y2="849" id="line3-floor4" ways="line0-floor4,line5-floor4,doorlineline44-floor4,doorlineline45-floor4,Stair.19.floor4" length="35.30000000000001"/>
	<line class="f45" x1="2732.1" y1="849" x2="2764.9" y2="849" id="line4-floor4" ways="line1-floor4,doorlineline74-floor4,doorlineline75-floor4,Stair.30.floor4" length="32.80000000000018"/><line class="f48" x1="270.7" y1="849" x2="236.6" y2="849" id="line5-floor4" ways="line3-floor4,line6-floor4,doorlineline43-floor4,doorlineline44-floor4,doorlineline45-floor4" length="34.099999999999994"/>
	<line class="f48" x1="236.6" y1="849" x2="201.9" y2="849" id="line6-floor4" ways="line5-floor4,line7-floor4,doorlineline41-floor4,doorlineline42-floor4,doorlineline43-floor4" length="34.69999999999999"/>
	<line class="f48" x1="201.9" y1="849" x2="151" y2="849" id="line7-floor4" ways="line6-floor4,line8-floor4,doorlineline38-floor4,doorlineline41-floor4,doorlineline42-floor4" length="50.900000000000006"/>
	<line class="f48" x1="151" y1="849" x2="131.9" y2="849" id="line8-floor4" ways="line7-floor4,line9-floor4,doorlineline38-floor4,doorlineline39-floor4" length="19.099999999999994"/>
	<line class="f48" x1="131.9" y1="849" x2="94.9" y2="849" id="line9-floor4" ways="line8-floor4,line10-floor4,doorlineline37-floor4,doorlineline39-floor4" length="37"/>
	<line class="f48" x1="94.9" y1="849" x2="61.7" y2="849" id="line10-floor4" ways="line9-floor4,line11-floor4,doorlineline36-floor4,doorlineline37-floor4,doorlineline40-floor4" length="33.2"/>
	<line class="f48" x1="61.7" y1="849" x2="27.1" y2="849" id="line11-floor4" ways="line10-floor4,doorlineline35-floor4,doorlineline36-floor4,doorlineline40-floor4,Stair.20.floor4" length="34.6"/>
	<line class="f48" x1="341.2" y1="849" x2="341.2" y2="779.3" id="line12-floor4" ways="line0-floor4,doorlineline46-floor4,doorlineline47-floor4,Stair.32.floor4" length="69.70000000000005"/>
	<line class="f48" x1="1254.7" y1="849" x2="1288.9" y2="849" id="line13-floor4" ways="line14-floor4,line17-floor4,doorlineline49-floor4,A-420" length="34.200000000000045"/>
	<line class="f48" x1="1288.9" y1="849" x2="1288.9" y2="878.2" id="line14-floor4" ways="line13-floor4,line15-floor4,line17-floor4,doorlineline49-floor4,doorlineline52-floor4" length="29.200000000000045"/>
	<line class="f48" x1="1288.9" y1="878.2" x2="1288.9" y2="884.5" id="line15-floor4" ways="line14-floor4,line16-floor4,doorlineline52-floor4,doorlineline53-floor4" length="6.2999999999999545"/>
	<line class="f48" x1="1288.9" y1="884.5" x2="1288.9" y2="912.7" id="line16-floor4" ways="line15-floor4,doorlineline53-floor4,A-424" length="28.200000000000045"/>
	<line class="f48" x1="1288.9" y1="849" x2="1327.2" y2="849" id="line17-floor4" ways="line13-floor4,line14-floor4,line18-floor4,doorlineline49-floor4,doorlineline50-floor4" length="38.299999999999955"/>
	<line class="f48" x1="1327.2" y1="849" x2="1361.6" y2="849" id="line18-floor4" ways="line17-floor4,line19-floor4,doorlineline50-floor4,doorlineline51-floor4" length="34.399999999999864"/>
	<line class="f48" x1="1361.6" y1="849" x2="1395.8" y2="849" id="line19-floor4" ways="line18-floor4,line20-floor4,doorlineline51-floor4,Stair.33.floor4" length="34.200000000000045"/>
	<line class="f48" x1="1395.8" y1="849" x2="1429.4" y2="849" id="line20-floor4" ways="line19-floor4,line21-floor4,doorlineline55-floor4,Stair.33.floor4" length="33.600000000000136"/>
	<line class="f48" x1="1429.4" y1="849" x2="1466.9" y2="849" id="line21-floor4" ways="line20-floor4,line22-floor4,doorlineline55-floor4,doorlineline60-floor4" length="37.5"/>
	<line class="f48" x1="1466.9" y1="849" x2="1500.9" y2="849" id="line22-floor4" ways="line21-floor4,line23-floor4,line24-floor4,doorlineline58-floor4,doorlineline60-floor4" length="34"/>
	<line class="f48" x1="1500.9" y1="849" x2="1536" y2="849" id="line23-floor4" ways="line22-floor4,line24-floor4,doorlineline58-floor4,A-416" length="35.09999999999991"/>
	<line class="f48" x1="1500.9" y1="849" x2="1500.9" y2="878" id="line24-floor4" ways="line22-floor4,line23-floor4,line25-floor4,doorlineline56-floor4,doorlineline58-floor4" length="29"/>
	<line class="f48" x1="1500.9" y1="878" x2="1500.9" y2="919.2" id="line25-floor4" ways="line24-floor4,doorlineline56-floor4,WC-FM-A4" length="41.200000000000045"/>
	<line class="f48" x1="2397.1" y1="819.4" x2="2451.2" y2="819.4" id="line26-floor4" ways="line27-floor4,doorlineline62-floor4,A-9a" length="54.09999999999991"/>
	<line class="f48" x1="2451.2" y1="819.4" x2="2482.3" y2="819.4" id="line27-floor4" ways="line26-floor4,line28-floor4,line29-floor4,doorlineline62-floor4" length="31.100000000000364"/>
	<line class="f48" x1="2482.3" y1="819.4" x2="2482.3" y2="784.5" id="line28-floor4" ways="line27-floor4,line29-floor4,Stair.31.floor4" length="34.89999999999998"/>
	<line class="f48" x1="2482.3" y1="819.4" x2="2482.3" y2="849" id="line29-floor4" ways="line27-floor4,line28-floor4,line30-floor4,Stair.25.floor4" length="29.600000000000023"/>
	<line class="f48" x1="2482.3" y1="849" x2="2519.9" y2="849" id="line30-floor4" ways="line29-floor4,line31-floor4,doorlineline63-floor4,doorlineline65-floor4,Stair.25.floor4" length="37.59999999999991"/>
	<line class="f48" x1="2519.9" y1="849" x2="2554.9" y2="849" id="line31-floor4" ways="line30-floor4,line32-floor4,doorlineline63-floor4,doorlineline64-floor4,doorlineline65-floor4,doorlineline66-floor4" length="35"/>
	<line class="f48" x1="2554.9" y1="849" x2="2591" y2="849" id="line32-floor4" ways="line31-floor4,line33-floor4,doorlineline64-floor4,doorlineline66-floor4,doorlineline67-floor4" length="36.09999999999991"/>
	<line class="f48" x1="2591" y1="849" x2="2627.1" y2="849" id="line33-floor4" ways="line32-floor4,line34-floor4,doorlineline67-floor4,doorlineline68-floor4,doorlineline69-floor4" length="36.09999999999991"/>
	<line class="f48" x1="2627.1" y1="849" x2="2661.6" y2="849" id="line34-floor4" ways="line2-floor4,line33-floor4,doorlineline68-floor4,doorlineline69-floor4,doorlineline70-floor4,doorlineline71-floor4" length="34.5"/>
<line id="doorlineline35-floor4" x1="27.1" y1="836.5" x2="27.1" y2="849" stroke="#000000" ways="line11-floor4,A-438,Stair.20.floor4" length="12.5"/><line id="doorlineline36-floor4" x1="61.7" y1="835.1" x2="61.7" y2="849" stroke="#000000" ways="line10-floor4,line11-floor4,doorlineline40-floor4,A-436" length="13.899999999999977"/><line id="doorlineline37-floor4" x1="94.9" y1="834.9" x2="94.9" y2="849" stroke="#000000" ways="line9-floor4,line10-floor4,A-434" length="14.100000000000023"/><line id="doorlineline38-floor4" x1="151" y1="833.4" x2="151" y2="849" stroke="#000000" ways="line7-floor4,line8-floor4,A-433" length="15.600000000000023"/><line id="doorlineline39-floor4" x1="131.9" y1="862.95" x2="131.9" y2="849" stroke="#000000" ways="line8-floor4,line9-floor4,A-427" length="13.950000000000045"/><line id="doorlineline40-floor4" x1="61.7" y1="862.95" x2="61.7" y2="849" stroke="#000000" ways="line10-floor4,line11-floor4,doorlineline36-floor4,A-429" length="13.950000000000045"/><line id="doorlineline41-floor4" x1="201.9" y1="863.9" x2="201.9" y2="849" stroke="#000000" ways="line6-floor4,line7-floor4,doorlineline42-floor4,A-425" length="14.899999999999977"/><line id="doorlineline42-floor4" x1="201.9" y1="834.2" x2="201.9" y2="849" stroke="#000000" ways="line6-floor4,line7-floor4,doorlineline41-floor4,A-430" length="14.799999999999955"/><line id="doorlineline43-floor4" x1="236.6" y1="834.25" x2="236.6" y2="849" stroke="#000000" ways="line5-floor4,line6-floor4,A-428" length="14.75"/><line id="doorlineline44-floor4" x1="270.7" y1="832.55" x2="270.7" y2="849" stroke="#000000" ways="line3-floor4,line5-floor4,doorlineline45-floor4,A-426" length="16.450000000000045"/><line id="doorlineline45-floor4" x1="270.7" y1="864.25" x2="270.7" y2="849" stroke="#000000" ways="line3-floor4,line5-floor4,doorlineline44-floor4,A-426-1" length="15.25"/><line id="doorlineline46-floor4" x1="341.2" y1="861.4" x2="341.2" y2="849" stroke="#000000" ways="line0-floor4,line12-floor4,doorlineline47-floor4,WC-F-A4" length="12.399999999999977"/><line id="doorlineline47-floor4" x1="354.04999999999995" y1="849" x2="341.2" y2="849" stroke="#000000" ways="line0-floor4,line12-floor4,doorlineline46-floor4,A-18-1" length="12.849999999999966"/><line id="doorlineline49-floor4" x1="1288.9" y1="833.4" x2="1288.9" y2="849" stroke="#000000" ways="line13-floor4,line14-floor4,line17-floor4,A-420a" length="15.600000000000023"/><line id="doorlineline50-floor4" x1="1327.2" y1="833.2" x2="1327.2" y2="849" stroke="#000000" ways="line17-floor4,line18-floor4,A-419" length="15.799999999999955"/><line id="doorlineline51-floor4" x1="1361.6" y1="832.55" x2="1361.6" y2="849" stroke="#000000" ways="line18-floor4,line19-floor4,A-439" length="16.450000000000045"/><line id="doorlineline52-floor4" x1="1274" y1="878.2" x2="1288.9" y2="878.2" stroke="#000000" ways="line14-floor4,line15-floor4,A-421-1" length="14.900000000000091"/><line id="doorlineline53-floor4" x1="1303.45" y1="884.5" x2="1288.9" y2="884.5" stroke="#000000" ways="line15-floor4,line16-floor4,A-422" length="14.549999999999955"/><line id="doorlineline55-floor4" x1="1429.4" y1="865.95" x2="1429.4" y2="849" stroke="#000000" ways="line20-floor4,line21-floor4,A-423-1" length="16.950000000000045"/><line id="doorlineline56-floor4" x1="1487.0500000000002" y1="878" x2="1500.9" y2="878" stroke="#000000" ways="line24-floor4,line25-floor4,line56" length="13.849999999999909"/><line id="doorlineline58-floor4" x1="1500.9" y1="836.5" x2="1500.9" y2="849" stroke="#000000" ways="line22-floor4,line23-floor4,line24-floor4,A-417" length="12.5"/><line id="doorlineline60-floor4" x1="1466.9" y1="833.2" x2="1466.9" y2="849" stroke="#000000" ways="line21-floor4,line22-floor4,A-418" length="15.799999999999955"/><line id="doorlineline62-floor4" x1="2451.2" y1="848.9" x2="2451.2" y2="819.4" stroke="#000000" ways="line26-floor4,line27-floor4,WC-M-A4-1" length="29.5"/><line id="doorlineline63-floor4" x1="2519.9" y1="834.2" x2="2519.9" y2="849" stroke="#000000" ways="line30-floor4,line31-floor4,doorlineline65-floor4,A-412" length="14.799999999999955"/><line id="doorlineline64-floor4" x1="2554.9" y1="834.2" x2="2554.9" y2="849" stroke="#000000" ways="line31-floor4,line32-floor4,doorlineline66-floor4,A-410" length="14.799999999999955"/><line id="doorlineline65-floor4" x1="2519.9" y1="862.25" x2="2519.9" y2="849" stroke="#000000" ways="line30-floor4,line31-floor4,doorlineline63-floor4,WC-F-A4-1" length="13.25"/><line id="doorlineline66-floor4" x1="2554.9" y1="862.55" x2="2554.9" y2="849" stroke="#000000" ways="line31-floor4,line32-floor4,doorlineline64-floor4,A-411" length="13.549999999999955"/><line id="doorlineline67-floor4" x1="2591" y1="861" x2="2591" y2="849" stroke="#000000" ways="line32-floor4,line33-floor4,A-409" length="12"/><line id="doorlineline68-floor4" x1="2627.1" y1="834.2" x2="2627.1" y2="849" stroke="#000000" ways="line33-floor4,line34-floor4,doorlineline69-floor4,A-408" length="14.799999999999955"/><line id="doorlineline69-floor4" x1="2627.1" y1="863.4" x2="2627.1" y2="849" stroke="#000000" ways="line33-floor4,line34-floor4,doorlineline68-floor4,A-407" length="14.399999999999977"/><line id="doorlineline70-floor4" x1="2661.6" y1="862.25" x2="2661.6" y2="849" stroke="#000000" ways="line2-floor4,line34-floor4,doorlineline71-floor4,A-405" length="13.25"/><line id="doorlineline71-floor4" x1="2661.6" y1="835.4" x2="2661.6" y2="849" stroke="#000000" ways="line2-floor4,line34-floor4,doorlineline70-floor4,A-406" length="13.600000000000023"/><line id="doorlineline72-floor4" x1="2696" y1="832.55" x2="2696" y2="849" stroke="#000000" ways="line1-floor4,line2-floor4,doorlineline73-floor4,A-404" length="16.450000000000045"/><line id="doorlineline73-floor4" x1="2696" y1="862.25" x2="2696" y2="849" stroke="#000000" ways="line1-floor4,line2-floor4,doorlineline72-floor4,A-403" length="13.25"/><line id="doorlineline74-floor4" x1="2732.1" y1="861" x2="2732.1" y2="849" stroke="#000000" ways="line1-floor4,line4-floor4,A-401" length="12"/><line id="doorlineline75-floor4" x1="2764.9" y1="834.2" x2="2764.9" y2="849" stroke="#000000" ways="line4-floor4,A-402,Stair.30.floor4" length="14.799999999999955"/></g>
<g id="BaseTop">
	<path class="f42" d="M1541.7,881.5c1.6,0,3,1.3,3,3c0,1.6-1.3,3-3,3c-1.6,0-3-1.3-3-3l0,0C1538.7,882.9,1540.1,881.5,1541.7,881.5   L1541.7,881.5 M1539.5,888.9h4.5c1.6,0,3,1.3,3,3v8.2h-2.2v11.1h-5.9v-11.1h-2.2v-8.2C1536.6,890.2,1537.9,888.9,1539.5,888.9   L1539.5,888.9L1539.5,888.9z"/>
	<path id="path6578_00000129909880331920855200000002903416002481047936_" class="f42" d="M1527.8,881.7c-1.7,0-3,1.3-3,3   c0,1.7,1.3,3,3,3c1.7,0,3-1.3,3-3l0,0C1530.8,883,1529.5,881.7,1527.8,881.7z M1527.8,889.1c-1.3,0-2.5,0.9-2.8,2.1l-3.9,11.3h4.5   v9h4.5v-9h4.5l-3.9-11.3C1530.3,890,1529.2,889.1,1527.8,889.1L1527.8,889.1z"/>
	<path class="f42" d="M2451,878.4c2.2,0,4.1,1.8,4.1,4.1c0,2.2-1.8,4.1-4.1,4.1c-2.2,0-4.1-1.8-4.1-4.1l0,0   C2446.9,880.3,2448.7,878.4,2451,878.4L2451,878.4 M2447.9,888.6h6.1c2.2,0,4.1,1.8,4.1,4.1v11.2h-3v15.2h-8.1v-15.2h-3v-11.2   C2443.9,890.4,2445.7,888.6,2447.9,888.6L2447.9,888.6L2447.9,888.6z"/>
	<path id="path6578_00000117642047066687659860000015833693193131211192_" class="f42" d="M2521.6,876.6c-2.3,0-4.1,1.8-4.1,4.1   c0,2.3,1.8,4.1,4.1,4.1c2.3,0,4.1-1.8,4.1-4.1l0,0C2525.7,878.4,2523.9,876.6,2521.6,876.6z M2521.6,886.8c-1.8,0-3.4,1.2-3.9,2.9   l-5.3,15.5h6.1v12.3h6.1v-12.3h6.1l-5.3-15.5C2525,888,2523.5,886.8,2521.6,886.8L2521.6,886.8z"/>
	<g id="g4273_00000008149973855528652760000012224765474812693899_">
		<path id="s83_00000153674505913199639630000005924162722312616632_" class="f49" d="M291.2,929c0,0-0.1-0.7-0.1-1.6v-62.6    c0-0.8-0.1-0.3-0.1-0.3h30c0,0-0.1-0.7-0.1,0.3v62.6c0,0.8,0.1,1.6,0.1,1.6H291.2z"/>
		<path id="path3909_00000109023461398567826700000013931932511378761133_" class="f410" d="M320.9,921.5c0-0.3,0-0.8,0-1.1    c-9.9,0-19.8,0-29.7,0c0,0.3,0,0.8,0,1.1C301,921.5,310.8,921.5,320.9,921.5z"/>
		<path id="path3909-6_00000176765972371282884770000014711820461774194064_" class="f410" d="M320.7,912.9c0-0.3,0-0.8,0-1.1    c-9.9,0-19.8,0-29.7,0c0,0.3,0,0.8,0,1.1C300.9,912.9,310.8,912.9,320.7,912.9z"/>
		<path id="path3909-2_00000084498259191677329790000006795745954969435316_" class="f410" d="M320.7,904.5c0-0.3,0-0.8,0-1.1    c-9.9,0-19.8,0-29.7,0c0,0.3,0,0.8,0,1.1C301,904.5,310.8,904.5,320.7,904.5z"/>
		<path id="path3909-2-1_00000132769275125286073160000003407214668177011332_" class="f410" d="M320.7,895.8c0-0.3,0-0.8,0-1.1    c-9.9,0-19.7,0-29.6,0c0,0.3,0,0.8,0,1.1C301.1,895.8,310.8,895.8,320.7,895.8z"/>
		<path id="path3909-2-7_00000057835845594526241970000000245250757743711164_" class="f410" d="M320.7,888.5c0-0.3,0-0.8,0-1.1    c-9.9,0-19.7,0-29.6,0c0,0.3,0,0.8,0,1.1C301,888.5,310.8,888.5,320.7,888.5z"/>
		<path id="path3909-2-8_00000149374493835790147550000012596354168055777936_" class="f410" d="M320.7,880.9c0-0.3,0-0.8,0-1.1    c-9.9,0-19.8,0-29.7,0c0,0.3,0,0.8,0,1.1C301.1,880.9,310.8,880.9,320.7,880.9z"/>
		<path id="path3909-2-5_00000163760245436209642420000006612012500312266423_" class="f410" d="M320.6,872.9c0-0.3,0-0.8,0-1.1    c-9.9,0-19.8,0-29.6,0c0,0.3,0,0.8,0,1.1C301,872.9,310.8,872.9,320.6,872.9z"/>
	</g>
	<g id="g4273_00000183933288013942983110000013035021915505655200_">
		<path id="s83_00000080913368237903472040000007320001209039474563_" class="f49" d="M11.5,929c0,0-0.1-0.7-0.1-1.6v-63.9    c0-0.8-0.1-0.3-0.1-0.3H41c0,0-0.1-0.7-0.1,0.3v63.9c0,0.8,0.1,1.6,0.1,1.6H11.5z"/>
		<path id="path3909_00000056421710353826793050000011108105804771984814_" class="f410" d="M40.9,921.3c0-0.3,0-0.8,0-1.1    c-9.8,0-19.6,0-29.4,0c0,0.3,0,0.8,0,1.1C21.2,921.3,30.9,921.3,40.9,921.3z"/>
		<path id="path3909-6_00000180361606473518128800000016282166019069232774_" class="f410" d="M40.7,912.5c0-0.3,0-0.8,0-1.1    c-9.8,0-19.6,0-29.4,0c0,0.3,0,0.8,0,1.1C21.1,912.5,30.9,912.5,40.7,912.5z"/>
		<path id="path3909-2_00000108992628219833156780000005692019407028321159_" class="f410" d="M40.7,904c0-0.3,0-0.8,0-1.1    c-9.8,0-19.6,0-29.4,0c0,0.3,0,0.8,0,1.1C21.2,904,30.9,904,40.7,904z"/>
		<path id="path3909-2-1_00000078753894051535024430000007561725679028880772_" class="f410" d="M40.7,895.1c0-0.3,0-0.8,0-1.1    c-9.8,0-19.5,0-29.3,0c0,0.3,0,0.8,0,1.1C21.3,895.1,30.9,895.1,40.7,895.1z"/>
		<path id="path3909-2-7_00000025408065974272274610000012166811764245411233_" class="f410" d="M40.7,887.7c0-0.3,0-0.8,0-1.1    c-9.8,0-19.5,0-29.3,0c0,0.3,0,0.8,0,1.1C21.2,887.7,30.9,887.7,40.7,887.7z"/>
		<path id="path3909-2-8_00000134938537873841999600000007633853657226759042_" class="f410" d="M40.7,879.9c0-0.3,0-0.8,0-1.1    c-9.8,0-19.6,0-29.4,0c0,0.3,0,0.8,0,1.1C21.3,879.9,30.9,879.9,40.7,879.9z"/>
		<path id="path3909-2-5_00000031196130142014557950000017145107070627051177_" class="f410" d="M40.6,871.8c0-0.3,0-0.8,0-1.1    c-9.8,0-19.6,0-29.3,0c0,0.3,0,0.8,0,1.1C21.2,871.8,30.9,871.8,40.6,871.8z"/>
	</g>
	<g id="g4273_00000082356798494299648340000000030010956909439405_">
		<path id="s83_00000112610759648952114830000014485431108480122518_" class="f49" d="M1380.8,929c0,0-0.1-0.7-0.1-1.6v-63.3    c0-0.8-0.1-0.3-0.1-0.3h30.9c0,0-0.1-0.7-0.1,0.3v63.3c0,0.8,0.1,1.6,0.1,1.6H1380.8z"/>
		<path id="path3909_00000017501965544877166940000003445767335858136504_" class="f410" d="M1411.3,921.4c0-0.3,0-0.8,0-1.1    c-10.2,0-20.4,0-30.6,0c0,0.3,0,0.8,0,1.1C1390.8,921.4,1400.9,921.4,1411.3,921.4z"/>
		<path id="path3909-6_00000081647164355624032910000017028994094338223544_" class="f410" d="M1411.1,912.7c0-0.3,0-0.8,0-1.1    c-10.2,0-20.4,0-30.6,0c0,0.3,0,0.8,0,1.1C1390.7,912.7,1400.9,912.7,1411.1,912.7z"/>
		<path id="path3909-2_00000070118469582113500220000015952530240844327064_" class="f410" d="M1411.1,904.3c0-0.3,0-0.8,0-1.1    c-10.2,0-20.4,0-30.6,0c0,0.3,0,0.8,0,1.1C1390.8,904.3,1400.9,904.3,1411.1,904.3z"/>
		<path id="path3909-2-1_00000134240674076092802940000011792907437084547969_" class="f410" d="M1411.1,895.4c0-0.3,0-0.8,0-1.1    c-10.2,0-20.3,0-30.5,0c0,0.3,0,0.8,0,1.1C1391,895.4,1400.9,895.4,1411.1,895.4z"/>
		<path id="path3909-2-7_00000139288374728074892140000005890071974299155887_" class="f410" d="M1411.1,888.1c0-0.3,0-0.8,0-1.1    c-10.2,0-20.3,0-30.5,0c0,0.3,0,0.8,0,1.1C1390.8,888.1,1400.9,888.1,1411.1,888.1z"/>
		<path id="path3909-2-8_00000069369935872186209190000011257674148992864404_" class="f410" d="M1411.1,880.4c0-0.3,0-0.8,0-1.1    c-10.2,0-20.4,0-30.6,0c0,0.3,0,0.8,0,1.1C1391,880.4,1400.9,880.4,1411.1,880.4z"/>
		<path id="path3909-2-5_00000176751495287111564120000006906226256175000714_" class="f410" d="M1411,872.4c0-0.3,0-0.8,0-1.1    c-10.2,0-20.4,0-30.5,0c0,0.3,0,0.8,0,1.1C1390.8,872.4,1400.9,872.4,1411,872.4z"/>
	</g>
	<g id="g4273_00000164515949605373392210000010045368988568120506_">
		<path id="s83_00000092422211306910783710000002007603880803522708_" class="f49" d="M2469.7,929.1c0,0-0.1-0.6-0.1-1.5v-58.1    c0-0.7-0.1-0.2-0.1-0.2h32.5c0,0-0.1-0.6-0.1,0.2v58.1c0,0.7,0.1,1.5,0.1,1.5H2469.7z"/>
		<path id="path3909_00000155839647433937738350000000754261907230507175_" class="f410" d="M2501.9,922.1c0-0.2,0-0.7,0-1    c-10.7,0-21.4,0-32.1,0c0,0.2,0,0.7,0,1C2480.3,922.1,2490.9,922.1,2501.9,922.1z"/>
		<path id="path3909-6_00000000918747241255264840000001786049928775684489_" class="f410" d="M2501.6,914.1c0-0.2,0-0.7,0-1    c-10.7,0-21.4,0-32.1,0c0,0.2,0,0.7,0,1C2480.2,914.1,2490.9,914.1,2501.6,914.1z"/>
		<path id="path3909-2_00000142158189338865398830000005322117535584446102_" class="f410" d="M2501.6,906.4c0-0.2,0-0.7,0-1    c-10.7,0-21.4,0-32.1,0c0,0.2,0,0.7,0,1C2480.3,906.4,2490.9,906.4,2501.6,906.4z"/>
		<path id="path3909-2-1_00000115515092131533761400000017252788663914466190_" class="f410" d="M2501.6,898.3c0-0.2,0-0.7,0-1    c-10.7,0-21.3,0-32,0c0,0.2,0,0.7,0,1C2480.5,898.3,2490.9,898.3,2501.6,898.3z"/>
		<path id="path3909-2-7_00000066504444817189741920000014921916568018050446_" class="f410" d="M2501.6,891.5c0-0.2,0-0.7,0-1    c-10.7,0-21.3,0-32,0c0,0.2,0,0.7,0,1C2480.3,891.5,2490.9,891.5,2501.6,891.5z"/>
		<path id="path3909-2-8_00000021820766235075263660000005711107031003805082_" class="f410" d="M2501.6,884.4c0-0.2,0-0.7,0-1    c-10.7,0-21.4,0-32.1,0c0,0.2,0,0.7,0,1C2480.5,884.4,2490.9,884.4,2501.6,884.4z"/>
		<path id="path3909-2-5_00000124880898827860992720000001498242408659268240_" class="f410" d="M2501.5,877.1c0-0.2,0-0.7,0-1    c-10.7,0-21.4,0-32,0c0,0.2,0,0.7,0,1C2480.3,877.1,2490.9,877.1,2501.5,877.1z"/>
	</g>
	<g id="g4273_00000163043753586846372450000006725922737209018034_">
		<path id="s83_00000171695319194291703060000010453573278667977378_" class="f49" d="M2415,769.5c0,0,0.4-0.1,1-0.1h39.7    c0.5,0,0.2-0.1,0.2-0.1v26.5c0,0,0.4-0.1-0.2-0.1H2416c-0.5,0-1,0.1-1,0.1V769.5z"/>
		<path id="path3909_00000129179022421049733510000012273669087604957335_" class="f410" d="M2419.8,795.7c0.2,0,0.5,0,0.7,0    c0-8.7,0-17.4,0-26.2c-0.2,0-0.5,0-0.7,0C2419.8,778.1,2419.8,786.8,2419.8,795.7z"/>
		<path id="path3909-6_00000039133759347983820720000000269736219080206763_" class="f410" d="M2425.2,795.5c0.2,0,0.5,0,0.7,0    c0-8.7,0-17.4,0-26.2c-0.2,0-0.5,0-0.7,0C2425.2,778,2425.2,786.8,2425.2,795.5z"/>
		<path id="path3909-2_00000093166834715331766640000014551673442248963746_" class="f410" d="M2430.5,795.5c0.2,0,0.5,0,0.7,0    c0-8.7,0-17.4,0-26.2c-0.2,0-0.5,0-0.7,0C2430.5,778.1,2430.5,786.8,2430.5,795.5z"/>
		<path id="path3909-2-1_00000078727250168434741780000004844107960091605383_" class="f410" d="M2436.1,795.5c0.2,0,0.5,0,0.7,0    c0-8.7,0-17.4,0-26.1c-0.2,0-0.5,0-0.7,0C2436.1,778.2,2436.1,786.8,2436.1,795.5z"/>
		<path id="path3909-2-7_00000179647387327693860800000001080845358032978818_" class="f410" d="M2440.7,795.5c0.2,0,0.5,0,0.7,0    c0-8.7,0-17.4,0-26.1c-0.2,0-0.5,0-0.7,0C2440.7,778.1,2440.7,786.8,2440.7,795.5z"/>
		<path id="path3909-2-8_00000174601668867706174950000018054453181393973418_" class="f410" d="M2445.5,795.5c0.2,0,0.5,0,0.7,0    c0-8.7,0-17.4,0-26.2c-0.2,0-0.5,0-0.7,0C2445.5,778.2,2445.5,786.8,2445.5,795.5z"/>
		<path id="path3909-2-5_00000094605287449339474650000009521358303544239807_" class="f410" d="M2450.6,795.4c0.2,0,0.5,0,0.7,0    c0-8.7,0-17.4,0-26.1c-0.2,0-0.5,0-0.7,0C2450.6,778.1,2450.6,786.8,2450.6,795.4z"/>
	</g>
	<g id="g4273_00000164507521732963830510000015264784570952381366_">
		<path id="s83_00000013155395279257530490000008914985310560293548_" class="f49" d="M2406,804.5c0,0,0.3-0.1,0.7-0.1h29    c0.4,0,0.1-0.1,0.1-0.1v26.5c0,0,0.3-0.1-0.1-0.1h-29c-0.4,0-0.7,0.1-0.7,0.1V804.5z"/>
	</g>
	<g id="g4273_00000026842054866651604510000006523633424567959681_">
		<path id="s83_00000108305544226598090190000001863557842519224739_" class="f49" d="M2750.5,929.9c0,0-0.1-0.6-0.1-1.5v-58.1    c0-0.7-0.1-0.2-0.1-0.2h32.5c0,0-0.1-0.6-0.1,0.2v58.1c0,0.7,0.1,1.5,0.1,1.5H2750.5z"/>
		<path id="path3909_00000005955527750817022280000009284044576865643166_" class="f410" d="M2782.6,922.9c0-0.2,0-0.7,0-1    c-10.7,0-21.4,0-32.1,0c0,0.2,0,0.7,0,1C2761.1,922.9,2771.7,922.9,2782.6,922.9z"/>
		<path id="path3909-6_00000046314878482831915460000003522113008424761244_" class="f410" d="M2782.4,914.9c0-0.2,0-0.7,0-1    c-10.7,0-21.4,0-32.1,0c0,0.2,0,0.7,0,1C2761,914.9,2771.7,914.9,2782.4,914.9z"/>
		<path id="path3909-2_00000179627920718388852150000008761637179099846283_" class="f410" d="M2782.4,907.2c0-0.2,0-0.7,0-1    c-10.7,0-21.4,0-32.1,0c0,0.2,0,0.7,0,1C2761.1,907.2,2771.7,907.2,2782.4,907.2z"/>
		<path id="path3909-2-1_00000150790516107195908270000016079495459457332415_" class="f410" d="M2782.4,899.1c0-0.2,0-0.7,0-1    c-10.7,0-21.3,0-32,0c0,0.2,0,0.7,0,1C2761.2,899.1,2771.7,899.1,2782.4,899.1z"/>
		<path id="path3909-2-7_00000088819598350366933080000014142090491355067783_" class="f410" d="M2782.4,892.4c0-0.2,0-0.7,0-1    c-10.7,0-21.3,0-32,0c0,0.2,0,0.7,0,1C2761.1,892.4,2771.7,892.4,2782.4,892.4z"/>
		<path id="path3909-2-8_00000155148818163193104600000004255656416688010151_" class="f410" d="M2782.4,885.3c0-0.2,0-0.7,0-1    c-10.7,0-21.4,0-32.1,0c0,0.2,0,0.7,0,1C2761.2,885.3,2771.7,885.3,2782.4,885.3z"/>
		<path id="path3909-2-5_00000126281613770204666130000001259239651680179840_" class="f410" d="M2782.3,877.9c0-0.2,0-0.7,0-1    c-10.7,0-21.4,0-32,0c0,0.2,0,0.7,0,1C2761.1,877.9,2771.7,877.9,2782.3,877.9z"/>
	</g>
	<g id="g4273_00000094594118265799387620000018084338748503769264_">
		<path id="s83_00000152975726306561512660000007181881725019684774_" class="f49" d="M381,790.1c0,0-0.4,0.1-0.9,0.1h-34.6    c-0.4,0-0.1,0.1-0.1,0.1v-21c0,0-0.4,0.1,0.1,0.1h34.6c0.4,0,0.9-0.1,0.9-0.1V790.1z"/>
		<path id="path3909_00000145060266397497299740000015779670881732717959_" class="f410" d="M376.9,769.3c-0.1,0-0.4,0-0.6,0    c0,6.9,0,13.9,0,20.8c0.1,0,0.4,0,0.6,0C376.9,783.3,376.9,776.4,376.9,769.3z"/>
		<path id="path3909-6_00000119108198223023944730000014723364844799975311_" class="f410" d="M372.1,769.5c-0.1,0-0.4,0-0.6,0    c0,6.9,0,13.9,0,20.8c0.1,0,0.4,0,0.6,0C372.1,783.4,372.1,776.4,372.1,769.5z"/>
		<path id="path3909-2_00000023267123774223156120000002992830151161982391_" class="f410" d="M367.5,769.5c-0.1,0-0.4,0-0.6,0    c0,6.9,0,13.9,0,20.8c0.1,0,0.4,0,0.6,0C367.5,783.3,367.5,776.4,367.5,769.5z"/>
		<path id="path3909-2-1_00000057848687788046612870000008659793371863716494_" class="f410" d="M362.7,769.5c-0.1,0-0.4,0-0.6,0    c0,6.9,0,13.8,0,20.7c0.1,0,0.4,0,0.6,0C362.7,783.2,362.7,776.4,362.7,769.5z"/>
		<path id="path3909-2-7_00000016071792487996387850000014998922239884615079_" class="f410" d="M358.7,769.5c-0.1,0-0.4,0-0.6,0    c0,6.9,0,13.8,0,20.7c0.1,0,0.4,0,0.6,0C358.7,783.3,358.7,776.4,358.7,769.5z"/>
		<path id="path3909-2-8_00000007387061301184665500000001963978797834549427_" class="f410" d="M354.4,769.5c-0.1,0-0.4,0-0.6,0    c0,6.9,0,13.9,0,20.8c0.1,0,0.4,0,0.6,0C354.4,783.2,354.4,776.4,354.4,769.5z"/>
		<path id="path3909-2-5_00000005981802705478859350000005600867866221030802_" class="f410" d="M350.1,769.6c-0.1,0-0.4,0-0.6,0    c0,6.9,0,13.9,0,20.7c0.1,0,0.4,0,0.6,0C350.1,783.3,350.1,776.4,350.1,769.6z"/>
	</g>
	<path id="path6578_00000067928989219802214790000008682619866092679086_" class="f42" d="M341.2,875.5c-2.3,0-4.1,1.8-4.1,4.1   c0,2.3,1.8,4.1,4.1,4.1c2.3,0,4.1-1.8,4.1-4.1l0,0C345.3,877.3,343.5,875.5,341.2,875.5z M341.2,885.7c-1.8,0-3.4,1.2-3.9,2.9   l-5.3,15.5h6.1v12.3h6.1v-12.3h6.1l-5.3-15.5C344.6,886.9,343.1,885.7,341.2,885.7L341.2,885.7z"/>
</g>
<script href="../js/validator.js"/>
</svg>